<?xml version="1.0" encoding="UTF-8" standalone="no"?>
<!-- Created with Inkscape (http://www.inkscape.org/) -->

<svg
   xmlns:dc="http://purl.org/dc/elements/1.1/"
   xmlns:cc="http://creativecommons.org/ns#"
   xmlns:rdf="http://www.w3.org/1999/02/22-rdf-syntax-ns#"
   xmlns:svg="http://www.w3.org/2000/svg"
   xmlns="http://www.w3.org/2000/svg"
   xmlns:sodipodi="http://sodipodi.sourceforge.net/DTD/sodipodi-0.dtd"
   xmlns:inkscape="http://www.inkscape.org/namespaces/inkscape"
   width="1242.1157mm"
   height="665.69745mm"
   viewBox="0 0 4401.1974 2358.7705"
   id="svg3699"
   version="1.1"
   inkscape:version="0.91 r13725"
   sodipodi:docname="laserCameraFrame6mm_wip.svg">
  <defs
     id="defs3701" />
  <sodipodi:namedview
     id="base"
     pagecolor="#ffffff"
     bordercolor="#666666"
     borderopacity="1.0"
     inkscape:pageopacity="0.0"
     inkscape:pageshadow="2"
     inkscape:zoom="0.175"
     inkscape:cx="1218.7977"
     inkscape:cy="255.79355"
     inkscape:document-units="px"
     inkscape:current-layer="layer5"
     showgrid="false"
     inkscape:window-width="1920"
     inkscape:window-height="1017"
     inkscape:window-x="1912"
     inkscape:window-y="-8"
     inkscape:window-maximized="1"
     fit-margin-top="0"
     fit-margin-left="0"
     fit-margin-right="0"
     fit-margin-bottom="0" />
  <metadata
     id="metadata3704">
    <rdf:RDF>
      <cc:Work
         rdf:about="">
        <dc:format>image/svg+xml</dc:format>
        <dc:type
           rdf:resource="http://purl.org/dc/dcmitype/StillImage" />
        <dc:title></dc:title>
      </cc:Work>
    </rdf:RDF>
  </metadata>
  <g
     inkscape:label="lenHolderSide"
     inkscape:groupmode="layer"
     id="layer1"
     style="display:inline"
     transform="translate(3311.2485,527.54967)">
    <path
       style="color:#000000;font-style:normal;font-variant:normal;font-weight:normal;font-stretch:normal;font-size:medium;line-height:normal;font-family:sans-serif;text-indent:0;text-align:start;text-decoration:none;text-decoration-line:none;text-decoration-style:solid;text-decoration-color:#000000;letter-spacing:normal;word-spacing:normal;text-transform:none;direction:ltr;block-progression:tb;writing-mode:lr-tb;baseline-shift:baseline;text-anchor:start;white-space:normal;clip-rule:nonzero;display:inline;overflow:visible;visibility:visible;opacity:1;isolation:auto;mix-blend-mode:normal;color-interpolation:sRGB;color-interpolation-filters:linearRGB;solid-color:#000000;solid-opacity:1;fill:none;fill-opacity:1;fill-rule:nonzero;stroke:#000000;stroke-width:1;stroke-linecap:butt;stroke-linejoin:miter;stroke-miterlimit:10;stroke-dasharray:none;stroke-dashoffset:0;stroke-opacity:1;color-rendering:auto;image-rendering:auto;shape-rendering:auto;text-rendering:auto;enable-background:accumulate"
       d="m -115.27557,-102.42803 0,76.771403 -21.2598,0 0,76.7715 21.2598,0 0,105.117197 185.433598,0 0,21.2598 206.693402,0 0,-21.2598 399.2129,0 0,21.2598 206.6914,0 0,-21.2598 185.43357,0 0,-105.117197 12.4024,0 a 8.858268,8.858268 0 0 0 8.8574,-8.8594 l 0,-59.0546 a 8.858268,8.858268 0 0 0 -8.8574,-8.8575 l -12.4024,0 0,-76.771403 -1183.46487,0 z m 227.0918,51.220703 81.7422,0 c -1.4578,1.0937 -2.9892,2.4469 -4.6113,4.1035 -4.0624,4.2655 -6.959,8.2754 -8.6856,12.0332 -1.3528,2.886 -3.0026,7.383 -4.916,13.3125 -12.1914,-2.5233 -24.3587,-5.1146 -36.4824,-7.7637 -1.0255,-1.7833 -2.0875,-3.643 -3.2383,-5.7012 l -3.1973,0 c -0.017,1.4488 0.082,2.9018 0.2813,4.3594 -23.1475,-5.1013 -46.088802,-10.4038 -68.630902,-15.8223 9.3817,-2.7021 27.1887,-4.5214 47.738302,-4.5214 z m 93.7813,0 390.5312,0 c -1.4577,1.0937 -2.9912,2.4469 -4.6133,4.1035 -4.0624,4.2655 -6.957,8.2754 -8.6836,12.0332 -1.5234,3.2499 -3.4024,8.4298 -5.6367,15.539 -2.1328,7.0077 -3.959,12.1856999 -5.4824,15.5370999 -1.4218,0.711 -2.8946,1.0665 -4.418,1.0665 -5.2812,0 -11.0197,-4.2151 -17.2148,-12.6445999 -2.6405,-3.6561 -6.6017,-10.2053 -11.8828,-19.6504 l -3.2012,0 c -0.1018,8.5311 3.5568,17.2151 10.9707,26.0507999 7.5154,8.73419995 15.4377,13.4063 23.7656,14.0156 -0.8126,3.1484 -1.5742,6.2462001 -2.2851,9.2930001 -0.6768,2.1532 -1.5423,4.0016 -2.5918,5.5586 -31.3073,0.1037 -59.0971,0.3952 -82.002,0.6309 0.097,-3.9107 0.26,-7.8038 0.5098,-11.6758001 l -5.9414,-0.6094 c -1.9297,2.1328001 -4.6212,5.6876001 -8.0742,10.6641001 -0.3482,0.5017 -0.6566,0.9256 -0.9903,1.3984 -5.8755,-0.2944 -11.8257,-0.642 -17.8457,-1.043 0.1798,-0.6189 0.3416,-1.2151 0.5528,-1.8789 1.5233,-4.4686 2.2851,-7.8711001 2.2851,-10.2070001 0,-1.8281 -0.4063,-3.4532 -1.2187,-4.875 l -4.1114,0 c -2.0311,4.9764 -4.0625,9.9025001 -6.0937,14.7773001 -0.1917,0.5202 -0.3692,1.0276 -0.5469,1.5371 -8.1865,-0.6088 -16.5131,-1.3269 -24.9277,-2.1152 -1.7815,-2.2272 -3.4267,-3.4094 -4.9356,-3.5351 -0.5778,0.6691 -1.3384,1.6782 -2.1894,2.8574 -9.2113,-0.9098 -18.5451,-1.9222 -27.9844,-3.0274 0.3646,-1.0262 0.7467,-2.0364 1.1484,-3.0273001 -1.3203,-3.6562 -2.0332,-6.0957 -2.1347,-7.3145 l -5.9414,-0.457 c -0.3048,1.1172 -0.6603,2.2852 -1.0664,3.5039 -0.4062,1.2187 -1.0137,2.1328 -1.8262,2.7422 -3.7578,-2.9452 -5.6875,-4.4687 -5.7891,-4.5703 -2.3358,-1.625 -4.5704,-2.4375 -6.7031,-2.4375 -1.625,0 -3.25,0.3555 -4.875,1.0664 -1.895,2.0454 -3.6426,4.1763 -5.2559,6.3828 -29.7245,-4.0327 -60.2489,-8.87160005 -91.1093,-14.3477 1.0695,-5.2620999 1.6152,-9.4262999 1.6152,-12.4471999 0,-0.8125 0.053,-2.0313 0.1543,-3.6563 l 0,-3.6562 c 0,-2.0312 -0.1544,-3.6563 -0.459,-4.875 -1.5234,-0.8125 -3.0468,-1.168 -4.5703,-1.0664 l -0.6074,0 c -3.3515,5.2811 -5.6876,11.2736 -7.0078,17.9765 -0.2471,1.3179 -0.5165,3.281 -0.7969,5.6171999 -14.5075,-2.6401999 -29.0637,-5.3985999 -43.6328,-8.2811999 2.9741,-3.5485 4.814,-6.6746 5.5039,-9.3711 0.914,-3.1484 1.3711,-6.8067 1.3711,-10.9707 0,-6.2392 -1.2537,-11.1088 -3.7617,-14.6113 z m 402.5703,0 232.9218,0 c 5.703,0 11.1949,0.1404 16.3575,0.4003 -1.3045,1.024 -2.6653,2.2403 -4.0977,3.7032 -4.0625,4.2655 -6.9551,8.2754 -8.6816,12.0332 -1.5234,3.2499 -3.4024,8.4298 -5.6368,15.539 -2.1327,7.0077 -3.9629,12.1856999 -5.4863,15.5370999 -1.4218,0.711 -2.8926,1.0665 -4.416,1.0665 -5.2812,0 -11.0197,-4.2151 -17.2148,-12.6445999 -2.6406,-3.6561 -6.6017,-10.2053 -11.8829,-19.6504 l -3.1992,0 c -0.1017,8.5311 3.5567,17.2151 10.9707,26.0507999 7.5154,8.73419995 15.4358,13.4063 23.7637,14.0156 -0.8125,3.1484 -1.5741,6.2462001 -2.2852,9.2930001 -1.117,3.5546 -2.7422,6.295 -4.875,8.2246 -2.7421,0.1016 -5.2814,1.168 -7.6171,3.1992 -0.094,0.094 -0.3363,0.3809 -0.4571,0.5098 -28.8203,-1.9255 -58.347,-3.2913 -87.6797,-4.2656 0.062,-0.9848 0.1036,-1.8899 0.1036,-2.6426 0,-7.0077 -2.2853,-10.5117001 -6.8555,-10.5117001 -0.3047,-0.2032 -0.711,-0.3028 -1.2188,-0.3028 -3.3248,0 -9.0361,4.2757001 -17.0703,12.7168001 -11.6909,-0.3025 -23.3029,-0.5561 -34.7793,-0.75 0.4471,-3.2172 1.0511,-5.6166 1.8321,-7.0918 2.4375,0.711 4.9766,1.0664 7.6171,1.0664 7.0077,0 11.2735,-1.7285 12.7969,-5.1816001 l -1.9824,-2.2851 -1.8262,0 c -0.914,0 -2.1836,0.051 -3.8086,0.1523 -1.6249,0.1016 -2.8437,0.1543 -3.6562,0.1543 -2.6406,0 -4.6719,-0.6114 -6.0938,-1.8301 0.1018,-1.0156 0.8634,-4.97480005 2.2852,-11.8808 1.0156,-4.7733999 1.5234,-8.7344999 1.5234,-11.8828999 0,-4.5702 -1.0157,-8.6348 -3.0468,-12.1894 l -2.1329,-1.0645 c -3.3513,0.4063 -6.246,4.1135 -8.6836,11.1211 -2.1327,5.789 -3.1992,10.8672999 -3.1992,15.2343999 0,3.7577 -0.1012,6.29499995 -0.3047,7.6152 -7.3122,-1.2187 -12.2891,-1.77730005 -14.9296,-1.67570005 l -0.7598,0 0.7598,3.20110005 c 6.2967,3.9609 11.1211,6.7520001 14.4726,8.3770001 l 0,0.3047 c 0,0.1605 -0.3978,3.7387 -0.8418,7.705 -4.5883,-0.067 -9.1496,-0.1277 -13.6836,-0.1796 -1.0148,-2.8092 -3.2326,-5.2179 -6.666,-7.2207 l -2.4375,0 c -5.7693,0 -10.8224,2.3391 -15.1621,7.0039 -16.1342,-0.1034 -31.8002,-0.1316 -46.7734,-0.1036 1.9676,-7.1666 4.1545,-12.9866001 6.5683,-17.4121001 4.5703,-1.0156 10.4104,-4.8224 17.5195,-11.4238 7.1093,-6.6013999 11.2227,-12.0859999 12.3399,-16.4530999 0.914,-3.1484 1.3711,-6.8067 1.3711,-10.9707 0,-6.2392 -1.2537,-11.1088 -3.7617,-14.6113 z m 262.7343,1.4277 c 15.0493,1.582 24.9903,4.3263 24.9903,7.4648 0,0.077 -0.033,0.1515 -0.033,0.2285 l 90.373,0 0,14.7247 c 0.4702,0 0.9389,-0.01 1.4121,-0.01 30.45507,0 54.97277,3.9798 54.97277,8.9219 l 0,64.6406 c -0.8248,0.6358 -1.68,1.2736 -2.5977,1.916 -5.4844,3.8593 -9.9534,5.7891 -13.4063,5.7891 -0.8126,0 -1.6251,-0.1016 -2.4375,-0.3047 l -1.0664,-1.2188 c 3.0467,-3.5546 6.0938,-5.9414 9.1406,-7.1601 1.9296,-3.4531 3.9101,-6.9064 5.9415,-10.3594 2.2343,-4.164 3.3516,-7.8692 3.3516,-11.1191 0,-4.4687 -2.4376,-8.1271 -7.3126,-10.9707 l -2.4375,0 c -6.7029,0 -12.4396,3.1485 -17.2129,9.4453 -2.9803,4.0445 -4.9183,8.3613 -5.8164,12.9511 -6.3622,8.3182 -14.21537,12.4903 -23.56837,12.4903 -0.5687,0 -1.1479,-0.025 -1.7324,-0.064 -1.5694,-0.3629 -3.1396,-0.7262 -4.7383,-1.0801 -0.2507,-1.2319 -0.3848,-2.6237 -0.3848,-4.1894 0,-2.6406 0.3555,-6.4982 1.0664,-11.5762 0.711,-5.1795 1.0684,-9.0391 1.0684,-11.5781 0,-7.0077 -2.2872,-10.5117001 -6.8574,-10.5117001 -0.3046,-0.2032 -0.709,-0.3028 -1.2168,-0.3028 -3.5547,0 -9.8011,4.8225001 -18.7383,14.4707001 -6.6445,7.2555 -10.7895,12.7862 -12.4375,16.5957 -1.6307,-0.2641 -3.2681,-0.5278 -4.918,-0.7851 0.949,-2.5306 2.0061,-5.46 3.2618,-9.1055 3.1483,-9.2419 4.7226,-14.9317 4.7226,-17.0644 0,-4.1640001 -0.9141,-6.5997001 -2.7422,-7.3106001 -1.5234,-0.4062 -3.0469,-0.8633 -4.5703,-1.3711 -0.3047,-2.0312 -0.6094,-3.55470005 -0.914,-4.57030005 -1.625,-0.81249995 -3.1466,-1.21869995 -4.5684,-1.21869995 l -0.6113,0.1523 c -11.1309,11.0547 -18.0822,23.3114001 -20.8575,36.7695001 -2.2761,-0.2925 -4.5623,-0.5795 -6.8652,-0.8613 0.5104,-1.4351 1.019,-2.8567 1.5938,-4.5254 3.1483,-9.2419 4.7226,-14.9317 4.7226,-17.0644 0,-4.1640001 -0.9141,-6.5997001 -2.7422,-7.3106001 -1.5234,-0.4062 -3.0448,-0.8633 -4.5683,-1.3711 -0.3046,-2.0312 -0.6113,-3.55470005 -0.916,-4.57030005 -1.625,-0.81249995 -3.1485,-1.21869995 -4.5704,-1.21869995 l -0.6093,0.1523 c -10.0505,9.9816 -16.6762,20.9469001 -19.9121,32.8887001 -13.106,-1.3279 -26.5351,-2.5041 -40.1758,-3.5508 -0.6674,-0.8839 -1.2068,-1.5725 -1.5235,-1.918 2.3359,-9.9529 5.0275,-17.7228001 8.0743,-23.3086001 4.5702,-1.0156 10.4103,-4.8224 17.5195,-11.4238 7.1092,-6.6013999 11.2207,-12.0859999 12.3379,-16.4530999 0.914,-3.1484 1.373,-6.8067 1.373,-10.9707 0,-5.4363 -0.9592,-9.8251 -2.8633,-13.1836 z m -670.5312,6.1758 c 0.4062,1.3202 0.6094,2.7949 0.6094,4.4199 0,5.2811 -1.8282,10.8146 -5.4844,16.6035 -0.9679,1.5763 -1.9889,3.0053 -3.0547,4.3106 -2.6121,-0.5258 -5.2245,-1.0418 -7.8359,-1.5743 0.8735,-3.295 2.0121,-6.6436 3.4257,-10.0468 3.6562,-8.328 7.7696,-12.9005 12.3399,-13.7129 z m 402.5703,0 c 0.4062,1.3202 0.6094,2.7949 0.6094,4.4199 0,5.2811 -1.8283,10.8146 -5.4844,16.6035 -3.5546,5.7889 -7.7696,9.7501 -12.6445,11.8828 0.7109,-6.1951 2.4396,-12.5919 5.1816,-19.1933 3.6562,-8.328 7.7676,-12.9005 12.3379,-13.7129 z m 261.8359,0 c 0.4062,1.3202 0.6075,2.7949 0.6075,4.4199 0,5.2811 -1.8263,10.8146 -5.4825,16.6035 -3.5546,5.7889 -7.7696,9.7501 -12.6445,11.8828 0.7109,-6.1951 2.4356,-12.5919 5.1777,-19.1933 3.6562,-8.328 7.7716,-12.9005 12.3418,-13.7129 z m -911.847602,16.4648 c 1.426,2.2047 2.9094,4.3619 4.4668,6.4668 -14.3966,6.3985 -27.5492,12.9726999 -39.4043,19.72659985 -2.2361,1.3417 -4.8025,3.48420005 -7.6953,6.41210005 l 0,-23.9159999 c 0,-4.2523 18.1668,-7.7844 42.6328,-8.6895 z m 9.3301,12.6035 c 1.1781,1.3889 2.3962,2.753 3.6504,4.0957 -0.93,1.5947999 -1.5745,3.2357999 -1.9122,4.9238999 0.4062,2.6405 0.6094,5.38279995 0.6094,8.2265 0,7.1092 -1.1171,15.3850001 -3.3515,24.8301001 -0.4062,1.4218 -0.8633,4.4689 -1.3711,9.1406 -0.5078,3.8593 -1.168,6.9044 -1.9805,9.1387 -1.3202,3.3515 -1.9785,5.8926 -1.9785,7.6191 0,2.8437 1.168,5.3809 3.5039,7.6153 1.8281,-0.4063 3.1973,-0.7618 4.1113,-1.0664 3.5547,-19.398 5.5351,-29.8575 5.9414,-31.3809 2.4375,-9.5466 3.6563,-19.7522001 3.6563,-30.6191001 0,-0.497 -0.012,-0.9044 -0.018,-1.3594 6.069,5.4487 12.9587,10.4789 20.8594002,15.1172001 -1.1693,6.1282 -2.3384,12.2567 -3.5078,18.3847 -3.6562002,14.9294 -5.4844002,25.2873 -5.4844002,31.0762 0,3.0468 0.457,5.1309 1.3711,6.2481 3.453,-0.2032 5.9922002,-0.9141 7.6172002,-2.1328 2.6406,-3.6562 4.6719,-6.8556 6.09370001,-9.5977 7.82019999,-12.0857 14.87909979,-20.7189 21.17579979,-25.8984 0.9141,12.5934 1.5216,21.9884 1.8262,28.1835 2.2344,2.0312 4.7228,3.045 7.4648,3.045 4.0624,0 8.3791,-1.8771 12.9492,-5.6348 2.124,-1.6768 4.0719,-3.5137 5.8575,-5.498 0.634,2.7504 1.5568,5.5473 2.7832,8.3925 3.9608,4.164 8.5313,6.2442 13.7109,6.2442 6.2967,0 13.7112,-3.3498 22.2422,-10.0528 5.2742,-4.2067 8.9122,-8.2977 10.9258,-12.2714 12.467302,1.6658 25.030302,3.1813 37.675702,4.5566 -6.285,10.9577 -9.4336,21.5014 -9.4336,31.6309 0,12.0856 3.1975,18.1289 9.5957,18.1289 l 0.6114,0 c 7.2107,-9.1404 14.5236,-22.5962 21.9375,-40.3692 0.6336,-1.505 1.4266,-3.8076 2.3691,-6.8574 5.7361,0.5362 11.484,1.0498 17.25,1.5313 1.6194,2.2772 2.7432,3.7705 3.2305,4.2578 3.2499,3.2499 7.3126,4.875 12.1875,4.875 4.6067,0 9.2136,-2.3229 13.8203,-6.92 2.0729,0.14 4.1524,0.2651 6.2285,0.3985 0.6736,0.8541 1.4057,1.7083 2.2598,2.5625 3.3515,3.453 6.5001,5.1777 9.4453,5.1777 3.1529,0 6.8277,-2.1594 11.0098,-6.4062 2.0192,0.1064 4.0426,0.2041 6.0644,0.3047 l 0,10.8242 c 0,7.9216 2.3869,13.6602 7.1602,17.2148 3.2499,-0.7109 5.7871,-2.6407 7.6152,-5.789 1.4218,-3.0469 2.8457,-6.0939 4.2676,-9.1407 1.5234,-3.0468 2.2851,-4.9766 2.2851,-5.789 0,-0.1016 -0.1013,-1.1153 -0.3047,-3.045 -0.1017,-1.3202 -0.05,-2.3379 0.1524,-3.0488 0.018,-0.096 0.053,-0.1791 0.076,-0.2715 1.6106,0.064 3.2238,0.1214 4.8359,0.1817 3.1632,2.0917 6.2995,3.1386 9.4063,3.1386 2.7984,0 5.6988,-0.8488 8.6972,-2.5312 7.7362,0.2261 15.4876,0.4076 23.25,0.5566 1.0415,2.4487 3.304,4.1759 6.7969,5.1739 2.7811,-0.8998 6.0804,-2.5612 9.8496,-4.9102 2.7261,0.034 5.4531,0.063 8.1816,0.088 0.4755,1.3498 1.2435,2.6545 2.3262,3.9082 2.0313,2.3359 4.3165,3.5039 6.8555,3.5039 3.5793,0 7.7247,-2.4484 12.4277,-7.3047 6.2811,0 12.5677,-0.018 18.8574,-0.059 2.0952,2.5728 4.3604,3.8594 6.7989,3.8594 1.1172,0 2.1837,-0.2051 3.1992,-0.6113 0.7076,-0.3217 2.1429,-1.5056 4.1543,-3.375 7.0313,-0.081 14.0667,-0.1891 21.1035,-0.3223 1.0316,2.4744 3.2985,4.2181 6.8145,5.2227 3.0425,-0.9844 6.7122,-2.8885 10.9375,-5.6075 15.4527,-0.3843 30.9066,-0.8915 46.3476,-1.5 -0.4168,0.5152 -0.9404,1.0059 -1.584,1.4707 -4.164,2.3359 -7.3653,4.0118 -9.5996,5.0274 -5.8905,3.8593 -10.6642,8.9357 -14.3203,15.2324 -3.8594,6.6014 -5.7891,13.3049 -5.7891,20.1094 0,2.6383 0.3539,5.203497 1.0391,7.699197 l -333.2793,0 c -30.360902,0 -54.798802,-3.9657 -54.798802,-8.892597 0,-0.077 0.033,-0.1534 0.033,-0.2304 l -90.375,0 0,-14.7247 c -0.4703,0 -0.9373,0.012 -1.4102,0.012 -30.4553,0 -54.9687,-3.9798 -54.9687,-8.9219 l 0,-56.625 c 1.3006,-1.0813 3.0649,-2.6067 5.4101,-4.6914 2.8438,-2.5390001 5.2813,-4.3692001 7.3125,-5.4863001 11.6315,-6.42980005 24.7306,-13.0943 39.2403,-19.9863999 z m 707.490202,3.0782 1.3711,0 -1.8281,9.9002999 -1.3711,0 1.8281,-9.9002999 z M 361.76933,9.8687729 c 0.2982,0.1292 0.5709,0.2801001 0.8399,0.4336001 -0.4141,-0.053 -0.8239,-0.1009 -1.2383,-0.1543 0.1332,-0.092 0.264,-0.1897001 0.3984,-0.2793001 z m 539.3321,1.0684001 c -0.2125,8.0212 -1.8708,15.4392 -4.9454,22.2656 -3.2562,-0.3792 -6.5368,-0.7483 -9.8398,-1.1074 2.3832,-3.9357 4.3825,-7.4536 5.9473,-10.4961 1.3202,-2.6406 2.2871,-4.6211 2.8965,-5.9414 1.1172,-1.7265 3.0977,-3.2989 5.9414,-4.7207 z m 34.8105,0 c -0.2578,9.7338 -2.631,18.5841 -7.1035,26.5586 -2.996,-0.4417 -6.0203,-0.8722 -9.0723,-1.293 0.072,-0.7857 0.1414,-1.5483 0.1817,-2.1113 2.9452,-4.7733 5.3301,-8.9376 7.1582,-12.4922 1.3203,-2.6406 2.2851,-4.6211 2.8945,-5.9414 1.1171,-1.7265 3.0978,-3.2989 5.9414,-4.7207 z m -933.0879018,5.6211 c 0.1203,0.061 0.2387,0.1211 0.3594,0.1816 -0.075,0.097 -0.1433,0.1922 -0.2188,0.2891 -0.053,-0.1604 -0.091,-0.3121 -0.1406,-0.4707 z m 1029.8476718,3.3535 c 0.2638,0 0.5303,0 0.7968,0.012 l 0.9161,0 c 0.2032,0.7109 0.3027,1.4727 0.3027,2.2852 0,3.7577 -1.5235,7.7188 -4.5703,11.8828 -2.8438,3.7577 -6.0919,6.6524 -9.7481,8.6836 l -3.0488,0 c -0.6093,-1.3203 -0.9141,-2.7423 -0.9141,-4.2657 0,-4.4686 1.7794,-8.7344 5.334,-12.7968 3.3325,-3.8085 6.9747,-5.7413 10.9317,-5.8008 z m -1022.248072,0.2519 c 1.9421,0.8678 3.9326,1.7198 5.9766,2.5547 -1.3583,1.3651 -2.7382,2.8156 -4.1426,4.3653 -4.8748998,5.4842 -9.7500998,11.0196 -14.6249998,16.6054 -0.4062,-0.3046 -0.6094,-0.7636 -0.6094,-1.373 0,-3.9608 2.94550001,-9.1388 8.836,-15.5371 1.5924,-1.6762 3.11,-3.9015 4.5643998,-6.6153 z m 960.453102,2.3516 c 0.6094,4.0624 0.9141,7.2091 0.9141,9.4434 0,2.1327 -0.6602,4.9258 -1.9805,8.3789 -0.5989,1.5972 -1.0268,2.8091 -1.4375,3.9824 -5.2932,-1.0689 -10.7153,-2.0973 -16.2753,-3.0781 2.8958,-3.0057 5.7576,-6.0439 8.5722,-9.1309 3.8593,-4.0624 7.2617,-7.2598 10.207,-9.5957 z m -938.330002,6.1055 c 5.267,1.7217 10.8604,3.3529 16.7344,4.914 -0.069,0.2726 -0.1436,0.5438 -0.2051,0.8184 -1.0947,1.328 -2.3935,3.0066 -3.9141,5.0703 -4.5703,6.1952 -8.7345,10.0547 -12.4922,11.5781 l -1.6738,-1.6777 c -0.2031,-1.7265 -0.3047,-3.6036 -0.3047,-5.6348 0,-2.7168 0.6218,-7.7534 1.8555,-15.0683 z m 24.291,6.8418 c 2.2489,0.5475 4.511,1.0903 6.8476,1.6172 1.169,0.1862 2.3467,0.3595 3.5176,0.5429 -2.057,2.0894 -4.2866,3.8132 -6.6972,5.1524 l -3.0469,0 c -0.6094,-1.3203 -0.9141,-2.7423 -0.9141,-4.2657 0,-1.027 0.1051,-2.0413 0.293,-3.0468 z m 19.0976,3.5097 c 4.2376,0.6361 8.4871,1.2533 12.7481,1.8536 -2.1572,2.3783 -4.9878,4.8049 -8.5254,7.2812 -5.4843,3.8593 -9.9533,5.7891 -13.4062,5.7891 -0.8126,0 -1.6231,-0.1016 -2.4356,-0.3047 l -1.0684,-1.2188 c 3.0469,-3.5546 6.0939,-5.9414 9.1407,-7.1601 1.1623,-2.08 2.3482,-4.1604 3.5468,-6.2403 z m 70.103602,8.8106 c 1.9118,0.1968 3.8247,0.3915 5.7402,0.582 -1.1692,3.6739 -2.3385,7.3205 -3.5078,11.0156 -3.1485,8.9373 -7.1603,16.1974 -12.0352,21.7832 -0.1018,-1.0155 -0.1523,-2.0801 -0.1523,-3.1972 0,-7.3123 1.9806,-14.9807 5.9414,-23.0039 1.2106,-2.4904 2.5557,-4.8776 4.0137,-7.1797 z m 862.80847,0.3945 c 0.4066,2.1834 1.0151,4.3991 1.7969,6.6426 -2.7305,-0.8385 -5.5156,-1.661 -8.3789,-2.4609 2.5413,-1.3014 4.7388,-2.6955 6.582,-4.1817 z m -395.91397,3.6465 c 0.344,0 0.6929,0 1.0371,0 0.5907,2.1359 1.346,4.2978 2.291,6.4902 3.9609,4.164 8.5314,6.2442 13.711,6.2442 6.2967,0 13.7111,-3.3498 22.2421,-10.0528 1.0579,-0.8437 2.0487,-1.6832 2.9747,-2.5175 0.9483,0.01 1.9007,0.028 2.8496,0.039 0.9109,6.7422 2.8252,10.6378 5.7695,11.6192 1.1171,0.4062 2.541,0.6093 4.2676,0.6093 5.4842,0 12.133,-3.1485 19.9531,-9.4453 0.9277,-0.747 1.7851,-1.4842 2.6016,-2.2168 1.7967,0.041 3.5924,0.073 5.3886,0.1172 2.0669,5.0488 9.4102,7.584 22.0723,7.584 9.3546,0 18.6608,-1.9646 27.918,-5.8652 16.9178,0.7379 33.6613,1.6247 50.0429,2.7011 -2.9195,7.2886 -4.3984,14.3872 -4.3984,21.2911 0,12.0856 3.1974,18.1289 9.5957,18.1289 l 0.6113,0 c 6.8101,-8.6325 13.71,-21.1639 20.7012,-37.4961 65.7172,5.2295 124.0337,13.4951 163.6699,25.4687 l 0,11.3653 -90.373,0 c 0,0.076 0.033,0.1534 0.033,0.2304 0,4.926897 -24.4422,8.892597 -54.8028,8.892597 l -364.2871,0 c 4.368,-9.559397 6.5606,-21.919897 6.5606,-37.101597 0,-2.1327 -0.051,-4.418 -0.1524,-6.8554 2.8296,-2.5102 5.0132,-4.4854 6.8789,-6.1953 2.4263,-0.1062 4.8541,-0.2072 7.2793,-0.3184 12.4471,-0.5706 25.3573,-1.0531 38.5938,-1.4512 -4.093,8.7137 -6.1445,17.1578 -6.1445,25.3321 0,12.0856 3.1993,18.1289 9.5976,18.1289 l 0.6094,0 c 7.2107,-9.1404 14.5216,-22.5962 21.9355,-40.3692 0.3988,-0.9469 0.8615,-2.207 1.3828,-3.7656 6.3189,-0.127 12.69,-0.2336 19.1192,-0.3203 1.161,1.6028 1.952,2.618 2.3516,3.0176 3.2499,3.2499 7.3106,4.875 12.1855,4.875 5.0066,0 10.013,-2.7285 15.0195,-8.1582 0.3064,0 0.6075,0 0.9141,-0.01 z m 14.9375,0 c 3.3956,0.01 6.792,0.018 10.2012,0.035 -2.7463,1.3446 -5.1473,2.0352 -7.1856,2.0352 -0.8124,0 -1.6249,-0.1016 -2.4375,-0.3047 l -1.0664,-1.2188 c 0.1628,-0.1899 0.3255,-0.3636 0.4883,-0.5468 z m 42.709,0.375 c 1.8954,0.03 3.7871,0.058 5.6836,0.092 -1.2271,0.5565 -2.4824,0.999 -3.7715,1.2988 -0.5078,-0.5078 -1.0665,-0.7637 -1.6758,-0.7637 -0.084,-0.208 -0.1559,-0.4182 -0.2363,-0.6269 z m -117.5879,0.4257 c -0.7169,2.2577 -1.4335,4.4884 -2.1504,6.7539 -3.1484,8.9373 -7.1603,16.1974 -12.0352,21.7832 -0.1017,-1.0155 -0.1523,-2.0801 -0.1523,-3.1972 0,-7.3123 1.9805,-14.9807 5.9414,-23.0039 0.3513,-0.7226 0.7217,-1.43 1.0938,-2.1367 2.4404,-0.065 4.8414,-0.1407 7.3027,-0.1993 z m -302.166,2.8477 c 2.277,0.1049 4.5578,0.2011 6.8379,0.2988 -0.3097,5.1941 -2.0044,10.3087 -5.1133,15.3379 -1.3204,-1.0156 -1.9805,-2.3887 -1.9805,-4.1152 0,-3.9019 0.089,-7.7391 0.2559,-11.5215 z m 554.2988,2.291 c 2.6341,0.1851 5.2732,0.3681 7.8867,0.5625 -0.1118,0.353 -0.2241,0.6995 -0.3359,1.0527 -3.1484,8.9373 -7.1603,16.1974 -12.0352,21.7832 -0.1018,-1.0155 -0.1523,-2.0801 -0.1523,-3.1972 0,-6.4561 1.5491,-13.191 4.6367,-20.2012 z m 237.49227,0.5742 0,8.7559 c -2.8526,-1.4019 -5.8572,-2.7641 -9.0079,-4.086 2.8286,-1.0348 5.8316,-2.5922 9.0079,-4.6699 z m -567.48057,8.0489 c 0,1.0156 0.049,2.6406 0.1504,4.875 l 0,5.0253 c 0,10.7461 -2.6314,20.3212 -7.8926,28.722697 l -16.3398,0 c -0.4959,-1.5047 -0.75,-3.2053 -0.75,-5.109397 0,-3.1483 0.6075,-6.754 1.8262,-10.8164 l 3.3535,-10.3594 c 3.0467,-2.539 6.1446,-5.0254 9.2929,-7.4628 4.2656,-3.1484 7.7188,-4.7735 10.3594,-4.875 z"
       id="path8077-4"
       inkscape:connector-curvature="0" />
    <g
       style="font-style:normal;font-weight:normal;font-size:148.18128967px;line-height:125%;font-family:sans-serif;letter-spacing:0px;word-spacing:0px;display:inline;fill:none;fill-opacity:1;stroke:#ff0000;stroke-width:1px;stroke-linecap:butt;stroke-linejoin:miter;stroke-opacity:1;enable-background:new"
       id="g8393"
       transform="matrix(1.0280657,0,0,1.0280657,-3322.9758,706.83039)">
      <path
         sodipodi:nodetypes="cccccccscccccccscccccscccscsscccsccccscscccccsccccscccccscccscscccccsccccscccccccccsscccccsscccsscscccscccssccccscscccscsccsccccccscsccccsccccccccsccscsccsscccsccsccscsccccccccssssccccscccccsccscccccsssscccccscccccccscsccccccccccscccccccccccscscssccccscccccccccsscccccsscccscccsscsscsscscscscscccccscsccscsccscccscccccsccscsccccscsccccccccscscssccccscccccccccssccccccsccccccsccccccccccccscscscscccccscccccscccccccsccccccccscscccccscccscccscccccccccscccccsccccscsscsscccscsscccsccccscsccscscscscscccccsccccscccccccscccccccscccsscccscccsccccscccssccsccscccccsccscccccscsccccscccccscccccsccccscscccc"
         style="font-style:normal;font-variant:normal;font-weight:normal;font-stretch:normal;font-family:'Mariette Tryout';-inkscape-font-specification:'Mariette Tryout';fill:none;fill-opacity:1;stroke:#ff0000;stroke-opacity:1"
         d="m 3257.3711,-714.75391 c -4.7418,0 -8.8909,2.76478 -12.4473,8.29688 -0.9837,1.54174 -1.9229,3.13268 -2.8281,4.76172 -0.2341,0.0954 -0.4602,0.18074 -0.6953,0.27734 -10.8666,4.54423 -21.733,9.13628 -32.5996,13.7793 -21.2394,8.59452 -40.0087,17.53624 -56.3086,26.82226 -2.9636,1.77818 -6.5209,4.98785 -10.6699,9.63086 -0.099,0.59273 -0.1485,1.18657 -0.1485,1.7793 0,2.3709 0.5442,4.39483 1.6309,6.07422 1.0867,-0.7903 3.4085,-2.76458 6.9648,-5.92578 2.7661,-2.4697 5.1356,-4.24928 7.1114,-5.33594 15.9048,-8.79209 34.5768,-18.0278 56.0136,-27.70898 9.0106,-4.07465 17.0585,-7.51366 24.3028,-10.42188 -3.0505,7.08336 -5.4857,14.84995 -7.295,23.3125 -2.4697,12.94117 -4.9385,25.88305 -7.4082,38.82422 -3.5563,14.52177 -5.3359,24.59763 -5.3359,30.22851 0,2.96363 0.4449,4.98951 1.334,6.07618 3.3588,-0.19758 5.8295,-0.88878 7.4101,-2.07422 2.5685,-3.55636 4.5428,-6.66868 5.9258,-9.33594 7.6067,-11.75572 14.4729,-20.15325 20.5977,-25.19141 0.8891,12.24966 1.481,21.38803 1.7773,27.41407 2.1734,1.97574 4.5945,2.96289 7.2617,2.96289 3.9515,0 8.1503,-1.82728 12.5957,-5.48242 2.066,-1.63099 3.9605,-3.41748 5.6973,-5.34766 0.6167,2.67534 1.5141,5.39653 2.707,8.16406 3.8527,4.05029 8.2978,6.07422 13.336,6.07422 6.1248,0 13.3366,-3.25932 21.6347,-9.7793 8.2982,-6.61876 12.4473,-12.94075 12.4473,-18.96679 0,-2.86484 -0.8401,-4.29688 -2.5195,-4.29688 -1.3831,0 -2.7655,0.88784 -4.1485,2.66602 -0.889,1.38302 -1.8285,2.81506 -2.8164,4.29687 -2.1733,3.26 -5.7285,6.62057 -10.6679,10.07813 -5.3346,3.75392 -9.6823,5.63086 -13.041,5.63086 -0.7904,0 -1.5789,-0.0993 -2.3692,-0.29688 l -1.0391,-1.18554 c 2.9637,-3.45757 5.929,-5.7794 8.8926,-6.96485 1.877,-3.35878 3.8016,-6.7174 5.7774,-10.07617 2.1733,-4.05029 3.2617,-7.65521 3.2617,-10.81641 0,-4.34665 -2.3715,-7.90387 -7.1133,-10.66992 l -2.3711,0 c -6.5199,0 -12.1011,3.06267 -16.7441,9.1875 -2.7282,3.70252 -4.554,7.64016 -5.4883,11.8125 -1.0648,1.29176 -2.3275,2.92427 -3.8066,4.93164 -4.4455,6.02604 -8.4953,9.77991 -12.1504,11.26172 l -1.6289,-1.63086 c -0.1976,-1.67939 -0.2969,-3.50667 -0.2969,-5.48242 0,-3.55635 1.0864,-11.16143 3.2597,-22.81836 -0.7903,-3.85271 -2.5182,-6.37314 -5.1855,-7.55859 -4.9393,3.1612 -10.2742,7.90416 -16.0039,14.22656 -4.7418,5.33453 -9.4848,10.71708 -14.2266,16.15039 -0.3951,-0.29636 -0.5918,-0.74126 -0.5918,-1.33399 0,-3.85271 2.8641,-8.88966 8.5938,-15.11328 1.877,-1.97574 3.6565,-4.69282 5.3359,-8.15039 2.3709,-5.03816 3.803,-8.00154 4.2969,-8.89062 0.5927,-0.98788 2.0247,-2.81516 4.2969,-5.48242 1.9757,-2.37091 3.3084,-4.39679 4,-6.07618 5.1369,-12.54601 7.707,-24.64776 7.707,-36.30468 0,-1.0015 -0.038,-1.97588 -0.094,-2.93946 2.5762,-0.67521 4.8937,-1.17967 6.9414,-1.50586 l 3.5566,4.44532 c 9.4836,-2.56848 14.2246,-5.8278 14.2246,-9.7793 0,-0.49394 -0.097,-0.98849 -0.2949,-1.48242 -1.9757,-1.97576 -3.6064,-2.96289 -4.8906,-2.96289 -1.2842,0 -3.902,0.34559 -7.8536,1.03711 -3.979,0.72346 -8.2159,1.74912 -12.6855,3.04492 -0.4409,-1.89655 -1.0128,-3.70215 -1.7207,-5.41602 -1.1854,-0.29636 -2.3215,-0.44336 -3.4082,-0.44336 z m 170.5312,1.92579 c -3.26,0 -7.2105,2.37147 -11.8535,7.11328 -3.9515,4.14907 -6.7678,8.04993 -8.4472,11.70507 -1.4818,3.1612 -3.3091,8.20011 -5.4825,15.11524 -2.0745,6.81634 -3.8521,11.85329 -5.3339,15.11328 -1.383,0.69151 -2.817,1.03711 -4.2989,1.03711 -5.1369,0 -10.7181,-4.09946 -16.7441,-12.29883 -2.5685,-3.55635 -6.4217,-9.92799 -11.5586,-19.11523 l -3.1113,0 c -0.099,8.29814 3.4584,16.74532 10.6699,25.33984 7.3103,8.49573 15.0147,13.04009 23.1152,13.63281 -0.7902,3.06242 -1.5311,6.07545 -2.2226,9.03907 -1.0867,3.45756 -2.6677,6.12499 -4.7422,8.00195 -2.6673,0.0988 -5.1362,1.13558 -7.4082,3.11133 -0.7904,0.7903 -2.5679,2.86387 -5.334,6.22265 -12.7436,15.90479 -19.1152,30.96991 -19.1152,45.19532 0,11.75571 3.1103,17.63476 9.3339,17.63476 l 0.5938,0 c 7.0139,-8.89087 14.1264,-21.97976 21.3379,-39.26758 0.7902,-1.87696 1.827,-4.98928 3.1113,-9.33593 1.1855,-4.05029 2.2719,-7.11296 3.2598,-9.1875 3.0624,1.28424 6.0277,3.90201 8.8926,7.85351 3.8526,5.63089 6.1725,8.84056 6.9628,9.63086 3.1612,3.1612 7.1137,4.74219 11.8555,4.74219 4.9394,0 9.879,-2.71708 14.8184,-8.15039 0.7526,-0.81166 1.4301,-1.61708 2.0703,-2.41992 0.9716,2.23955 2.571,4.47919 4.8105,6.71875 3.26,3.35877 6.3227,5.0371 9.1875,5.0371 3.8528,0 8.4944,-3.25932 13.9278,-9.77929 0.9946,-1.1935 1.8671,-2.33066 2.6797,-3.44141 l 0,17.81446 c 0,7.70542 2.3218,13.28657 6.9648,16.74414 3.1612,-0.69152 5.63,-2.56845 7.4082,-5.63086 1.383,-2.96363 2.7673,-5.927 4.1504,-8.89063 1.4818,-2.96363 2.2226,-4.84056 2.2226,-5.63086 0,-0.0988 -0.099,-1.08593 -0.2968,-2.96289 -0.099,-1.28424 -0.049,-2.27333 0.1484,-2.96484 0.1976,-1.08666 0.7398,-1.92485 1.6289,-2.51758 4.1491,3.65514 8.2485,5.48242 12.2988,5.48242 5.137,0 10.6208,-2.91372 16.4493,-8.74219 2.0983,-2.09829 3.8133,-4.15148 5.1562,-6.16015 0.7067,-0.66348 1.3768,-1.46358 2.0039,-2.43555 1.4818,-2.86484 2.9635,-5.77856 4.4453,-8.74219 1.5806,-2.96362 3.2609,-4.39566 5.0391,-4.29687 0.7903,1.67938 1.1855,3.55632 1.1855,5.63086 0,2.27211 -0.6415,5.53143 -1.9257,9.77929 -1.2843,4.14908 -1.9278,7.3607 -1.9278,9.63282 0,4.24786 2.4211,7.06229 7.2617,8.44531 3.3588,-1.08666 7.4583,-3.25955 12.2989,-6.51953 1.8046,-1.22582 3.3698,-2.39544 4.7285,-3.51563 -0.016,0.72616 -0.043,1.44638 -0.043,2.18164 0,2.46969 0.9395,4.79152 2.8164,6.96485 1.9758,2.27211 4.1983,3.4082 6.668,3.4082 5.8285,0 13.1892,-6.61989 22.0801,-19.85742 0.9878,0.7903 3.1111,4.05157 6.3711,9.78125 2.5684,4.44544 5.4325,6.66797 8.5937,6.66797 1.0867,0 2.1235,-0.1986 3.1113,-0.59375 1.0867,-0.49394 3.7541,-2.86346 8.002,-7.11133 4.2479,-4.34665 6.8656,-7.26233 7.8535,-8.74414 0.9419,-1.4405 1.6118,-2.97658 2.0254,-4.60352 1.2288,-2.3897 2.4567,-4.79236 3.6855,-7.25 1.5806,-2.96362 3.259,-4.39566 5.0372,-4.29687 0.7903,1.67938 1.1855,3.55632 1.1855,5.63086 0,2.27211 -0.6415,5.53143 -1.9258,9.77929 -1.2842,4.14908 -1.9258,7.3607 -1.9258,9.63282 0,4.24786 2.4192,7.06229 7.2598,8.44531 3.3588,-1.08666 7.4582,-3.25955 12.2988,-6.51953 5.2358,-3.55636 8.5944,-6.66868 10.0762,-9.33594 0.3085,-0.57492 0.5908,-1.14402 0.8555,-1.70898 1.3994,2.80243 3.2143,4.22851 5.4609,4.22851 3.4576,0 7.9046,-2.61777 13.3379,-7.85351 3.8527,-3.9515 7.6543,-7.90397 11.4082,-11.85547 l 1.334,1.63086 c 0.099,5.5321 0.4444,10.4717 1.0371,14.81836 0.6915,5.03816 1.0371,7.26069 1.0371,6.66797 0,1.67938 -0.8878,3.16107 -2.666,4.44531 -4.0503,2.27211 -7.1626,3.90275 -9.3359,4.89062 -5.7297,3.75393 -10.3734,8.69158 -13.9297,14.81641 -3.754,6.42119 -5.6309,12.94178 -5.6309,19.56055 0,4.84058 1.1858,9.43459 3.5567,13.78125 2.5684,4.64301 5.9271,8.05128 10.0761,10.2246 0.5928,0.29636 1.2839,0.44336 2.0742,0.44336 2.3709,0 5.2369,-1.82728 8.5957,-5.48242 9.286,-9.87875 13.9297,-25.73436 13.9297,-47.5664 0,-2.07454 -0.05,-4.29707 -0.1484,-6.66797 6.1248,-5.43332 9.9284,-8.93893 11.4102,-10.51953 4.7418,-5.13696 7.1113,-9.48467 7.1113,-13.04102 0,-3.75393 -1.0865,-5.63086 -3.2598,-5.63086 -1.1854,0 -2.1229,0.64155 -2.8144,1.92578 -0.6916,1.18546 -1.335,2.32155 -1.9278,3.40821 -4.2478,6.02604 -7.6561,10.4234 -10.2246,13.18945 -0.4939,-7.21149 -0.7402,-14.47293 -0.7402,-21.7832 0,-6.22362 0.1986,-12.39862 0.5937,-18.52344 l -5.7793,-0.5918 c -1.877,2.07454 -4.4947,5.53246 -7.8535,10.37305 -3.3588,4.84059 -6.0262,8.29851 -8.0019,10.37305 -3.26,3.45756 -6.7676,5.92638 -10.5215,7.4082 -0.8891,-4.44544 -1.334,-7.50812 -1.334,-9.1875 0,-2.3709 0.6912,-5.72952 2.0742,-10.07617 1.4818,-4.34666 2.2227,-7.65562 2.2227,-9.92774 0,-1.77817 -0.3953,-3.35916 -1.1856,-4.74219 l -4,0 c -1.9757,4.8406 -3.9519,9.63125 -5.9277,14.37305 -2.0745,5.63089 -3.308,10.62014 -3.7031,14.9668 0.053,0.17641 0.1031,0.35288 0.1562,0.52929 -1.3895,1.45705 -3.0034,3.64936 -4.8437,6.58399 -3.5564,5.82847 -6.4702,8.74219 -8.7422,8.74219 l -0.5938,-0.14844 c -0.9878,-0.88909 -1.4804,-2.02518 -1.4804,-3.4082 0,-1.18545 0.3952,-2.91344 1.1855,-5.18555 0.7903,-2.27211 1.1856,-4.00205 1.1856,-5.1875 0,-2.66726 -1.5314,-6.76673 -4.5938,-12.29883 -3.0624,-5.5321 -5.7795,-8.39617 -8.1504,-8.59375 -1.8769,2.17333 -5.2356,7.11293 -10.0762,14.81836 -1.8649,2.95582 -3.3813,5.45786 -4.582,7.54883 -0.9318,1.29696 -1.9449,2.81512 -3.0547,4.60156 -3.9514,6.51997 -7.6557,9.7793 -11.1133,9.7793 -0.4939,0 -0.9388,-0.0477 -1.3339,-0.14649 -1.7782,-6.51997 -3.0613,-11.45958 -3.8516,-14.81836 0.8891,-9.28602 2.8156,-17.58425 5.7793,-24.89453 -1.2843,-3.55635 -1.9774,-5.92782 -2.0762,-7.11328 l -5.7793,-0.44531 c -0.2964,1.08666 -0.642,2.22275 -1.0371,3.4082 -0.3951,1.18545 -0.987,2.07524 -1.7773,2.66797 -3.6552,-2.86483 -5.5321,-4.34652 -5.6309,-4.44531 -2.2721,-1.5806 -4.445,-2.37109 -6.5195,-2.37109 -1.5806,0 -3.1616,0.34559 -4.7422,1.0371 -7.9563,8.58774 -13.356,18.63703 -16.2266,30.13086 -1.3373,1.45382 -2.8707,3.54674 -4.6113,6.32227 -3.5563,5.82847 -6.4701,8.74219 -8.7422,8.74219 l -0.5937,-0.14844 c -0.9879,-0.88909 -1.4825,-2.02518 -1.4825,-3.4082 0,-1.18545 0.3953,-2.91344 1.1856,-5.18555 0.7903,-2.27211 1.1855,-4.00205 1.1855,-5.1875 0,-2.66726 -1.5313,-6.76673 -4.5937,-12.29883 -3.0624,-5.5321 -5.7775,-8.39617 -8.1484,-8.59375 -1.877,2.17333 -5.2356,7.11293 -10.0762,14.81836 -1.3205,2.09284 -2.4735,3.96573 -3.461,5.625 -0.2423,0.32975 -0.4875,0.67232 -0.7382,1.04297 -3.754,5.43331 -5.9765,8.54564 -6.668,9.33594 -2.9637,3.35877 -6.0263,5.03711 -9.1875,5.03711 -1.4818,0 -3.0132,-0.2463 -4.5938,-0.74024 -5.5321,-1.67938 -9.3833,-4.891 -11.5566,-9.63281 -0.6915,-1.48181 -1.7302,-5.53162 -3.1133,-12.15039 -0.889,-4.14908 -2.5674,-6.52056 -5.0371,-7.11328 -0.9879,0.29636 -1.5817,1.43245 -1.7793,3.4082 l 0,-1.33203 c -0.099,-4.64301 0.8903,-11.16361 2.9649,-19.56055 2.0745,-8.49572 3.1113,-14.81772 3.1113,-18.96679 0,-0.7903 0.05,-1.97604 0.1484,-3.55664 l 0,-3.55665 c 0,-1.97575 -0.149,-3.55674 -0.4453,-4.74218 -1.4818,-0.7903 -2.9634,-1.1359 -4.4453,-1.03711 l -0.5918,0 c -3.26,5.13694 -5.5322,10.96635 -6.8164,17.48633 -0.5927,3.1612 -1.2839,9.33424 -2.0742,18.52148 -0.099,2.3709 -0.1981,4.79203 -0.2969,7.26172 -0.099,2.96363 -0.494,5.28546 -1.1855,6.96484 l 0,12.66797 c -1.4474,1.55523 -3.373,3.84384 -5.7911,6.89063 -4.8406,6.22362 -9.1367,9.48489 -12.8906,9.78125 -3.4575,-3.75393 -5.1875,-9.08878 -5.1875,-16.00391 0,-0.49394 0.6912,-5.4832 2.0742,-14.9668 -1.2842,-3.06241 -3.1612,-4.69305 -5.6308,-4.89062 l -1.9258,2.07617 c -0.099,2.27211 -0.643,5.72808 -1.6309,10.37109 -0.6417,3.27976 -1.0441,6.00012 -1.2226,8.19922 -0.8771,1.08866 -1.8178,2.387 -2.8418,3.95313 -2.7661,4.24786 -4.7424,6.91529 -5.9278,8.00195 -2.0745,1.77817 -5.1868,3.01161 -9.3359,3.70313 -3.6551,-1.67939 -7.409,-5.38361 -11.2617,-11.11329 -5.3345,-7.70542 -8.5442,-12.15048 -9.6309,-13.33593 2.2722,-9.68118 4.8899,-17.23856 7.8535,-22.67188 4.4455,-0.98787 10.126,-4.69209 17.0411,-11.11328 6.9151,-6.42119 10.9152,-11.75605 12.0019,-16.00391 0.8891,-3.06241 1.334,-6.61962 1.334,-10.66992 0,-8.10057 -2.1729,-13.82872 -6.5195,-17.1875 -0.494,-0.0988 -0.9885,-0.14843 -1.4825,-0.14843 z m 391.5801,0 c -3.26,0 -7.2105,2.37147 -11.8535,7.11328 -3.9515,4.14907 -6.7679,8.04993 -8.4473,11.70507 -1.4818,3.1612 -3.3091,8.20011 -5.4824,15.11524 -2.0746,6.81634 -3.8522,11.85329 -5.334,15.11328 -1.383,0.69151 -2.815,1.03711 -4.2968,1.03711 -5.137,0 -10.7182,-4.09946 -16.7442,-12.29883 -2.5684,-3.55635 -6.4216,-9.92799 -11.5586,-19.11523 l -3.1133,0 c -0.099,8.29814 3.4585,16.74532 10.67,25.33984 7.3102,8.49573 15.0166,13.04009 23.1172,13.63281 -0.7904,3.06242 -1.5312,6.07545 -2.2227,9.03907 -1.0867,3.45756 -2.6676,6.12499 -4.7422,8.00195 -2.6672,0.0988 -5.138,1.13558 -7.4101,3.11133 -0.7904,0.7903 -2.568,2.86387 -5.334,6.22265 -12.7436,15.90479 -19.1153,30.96991 -19.1153,45.19532 0,11.75571 3.1124,17.63476 9.336,17.63476 l 0.5918,0 c 7.0139,-8.89087 14.1264,-21.97976 21.3379,-39.26758 0.7903,-1.87696 1.829,-4.98928 3.1132,-9.33593 1.1855,-4.05029 2.2719,-7.11296 3.2598,-9.1875 3.0624,1.28424 6.0258,3.90201 8.8906,7.85351 3.8528,5.63089 6.1746,8.84056 6.9649,9.63086 3.1612,3.1612 7.1117,4.74219 11.8535,4.74219 4.9394,0 9.879,-2.71708 14.8183,-8.15039 0.4479,-0.48292 0.8518,-0.96161 1.2598,-1.44141 0.6153,2.61074 1.4951,5.26451 2.6582,7.96289 3.8528,4.05029 8.2978,6.07422 13.336,6.07422 6.1248,0 13.3366,-3.25932 21.6347,-9.7793 2.0479,-1.63342 3.8404,-3.24837 5.3828,-4.8457 0.7298,8.07882 2.6904,12.66829 5.8946,13.73633 1.0866,0.39515 2.471,0.59375 4.1504,0.59375 5.3345,0 11.8035,-3.06267 19.4101,-9.1875 3.1274,-2.51816 5.6018,-4.95156 7.4434,-7.30274 -0.1711,0.70552 -0.2813,1.40972 -0.2813,2.11524 0,7.01392 7.3587,10.52148 22.0781,10.52148 9.286,0 18.5237,-1.97622 27.711,-5.92773 11.5581,-4.84059 17.3379,-11.21224 17.3379,-19.11524 0,-2.17332 -0.7905,-3.25976 -2.3711,-3.25976 -1.3831,0 -2.7178,0.93944 -4.002,2.8164 -6.3224,8.7921 -14.2254,13.1875 -23.709,13.1875 -1.9758,0 -4.0493,-0.24629 -6.2226,-0.74023 -0.2964,-1.28424 -0.4453,-2.76788 -0.4453,-4.44727 0,-2.56847 0.3456,-6.32233 1.0371,-11.26171 0.6915,-5.03816 1.0371,-8.79204 1.0371,-11.26172 0,-6.81634 -2.2226,-10.22461 -6.668,-10.22461 -0.2964,-0.19758 -0.6916,-0.29492 -1.1855,-0.29492 -3.4576,0 -9.5333,4.69135 -18.2266,14.07617 -6.7061,7.32278 -10.7824,12.83282 -12.2558,16.54687 -1.7466,2.61976 -3.3178,4.68884 -4.6856,6.125 -3.5563,3.85272 -7.4572,6.27385 -11.7051,7.26172 -0.4939,-0.49394 -1.0381,-0.74219 -1.6308,-0.74219 -1.877,-4.64301 -2.8145,-9.48332 -2.8145,-14.52148 0,-12.64481 0.8879,-20.64513 2.666,-24.00391 2.371,0.69152 4.8417,1.03711 7.4102,1.03711 6.8163,0 10.9655,-1.68028 12.4473,-5.03906 l -1.9278,-2.22266 -1.7773,0 c -0.8891,0 -2.1245,0.0497 -3.7051,0.14844 -1.5806,0.0988 -2.7663,0.14844 -3.5566,0.14844 -2.5685,0 -4.5428,-0.59385 -5.9258,-1.7793 0.099,-0.98787 0.8396,-4.83908 2.2226,-11.55664 0.9879,-4.64301 1.4805,-8.49618 1.4805,-11.55859 0,-4.44544 -0.9872,-8.39791 -2.9629,-11.85547 l -2.0742,-1.03711 c -3.2599,0.39515 -6.0763,4.00202 -8.4473,10.81836 -2.0745,5.63089 -3.1113,10.57049 -3.1113,14.81836 0,3.65514 -0.099,6.12397 -0.2969,7.4082 -7.1126,-1.18544 -11.953,-1.72964 -14.5215,-1.63086 l -0.7402,0 0.7402,3.11328 c 6.1248,3.85272 10.8182,6.56784 14.0782,8.14844 l 0,0.29688 c 0,0.19757 -0.3456,3.35954 -1.0371,9.48437 -0.4802,4.08153 -0.798,7.93682 -0.9864,11.61719 -0.7383,1.14018 -1.4873,2.29052 -2.291,3.49609 -2.1733,3.26 -5.7286,6.62057 -10.668,10.07813 -5.3345,3.75392 -9.6822,5.63086 -13.041,5.63086 -0.7902,0 -1.5807,-0.0993 -2.3711,-0.29688 l -1.0371,-1.18554 c 2.9637,-3.45757 5.9271,-5.7794 8.8906,-6.96485 1.877,-3.35878 3.8036,-6.7174 5.7793,-10.07617 2.1734,-4.05029 3.2598,-7.65521 3.2598,-10.81641 0,-4.34665 -2.3695,-7.90387 -7.1113,-10.66992 l -2.3711,0 c -6.52,0 -12.1011,3.06267 -16.7441,9.1875 -2.623,3.55979 -4.4161,7.33599 -5.3809,11.33008 -1.0329,1.20134 -2.175,2.75792 -3.4277,4.67383 -2.766,4.24786 -4.7423,6.91529 -5.9278,8.00195 -2.0745,1.77817 -5.1849,3.01161 -9.334,3.70313 -3.6551,-1.67939 -7.4089,-5.38361 -11.2617,-11.11329 -5.3345,-7.70542 -8.5461,-12.15048 -9.6328,-13.33593 2.2721,-9.68118 4.8899,-17.23856 7.8535,-22.67188 4.4455,-0.98787 10.1259,-4.69209 17.041,-11.11328 6.9152,-6.42119 10.9153,-11.75605 12.002,-16.00391 0.8891,-3.06241 1.334,-6.61962 1.334,-10.66992 0,-8.10057 -2.1729,-13.82872 -6.5196,-17.1875 -0.4939,-0.0988 -0.9884,-0.14843 -1.4824,-0.14843 z m 254.6875,0 c -3.26,0 -7.2124,2.37147 -11.8554,7.11328 -3.9516,4.14907 -6.766,8.04993 -8.4454,11.70507 -1.4818,3.1612 -3.309,8.20011 -5.4824,15.11524 -2.0745,6.81634 -3.8541,11.85329 -5.3359,15.11328 -1.383,0.69151 -2.8151,1.03711 -4.2969,1.03711 -5.137,0 -10.7181,-4.09946 -16.7441,-12.29883 -2.5685,-3.55635 -6.4216,-9.92799 -11.5586,-19.11523 l -3.1114,0 c -0.099,8.29814 3.4584,16.74532 10.67,25.33984 7.3102,8.49573 15.0146,13.04009 23.1152,13.63281 -0.7903,3.06242 -1.5311,6.07545 -2.2227,9.03907 -1.0866,3.45756 -2.6676,6.12499 -4.7421,8.00195 -2.6673,0.0988 -5.1362,1.13558 -7.4082,3.11133 -0.7904,0.7903 -2.568,2.86387 -5.334,6.22265 -12.7436,15.90479 -19.1153,30.96991 -19.1153,45.19532 0,11.75571 3.1104,17.63476 9.334,17.63476 l 0.5938,0 c 7.0139,-8.89087 14.1264,-21.97976 21.3379,-39.26758 0.7903,-1.87696 1.8271,-4.98928 3.1113,-9.33593 1.1855,-4.05029 2.2719,-7.11296 3.2598,-9.1875 3.0624,1.28424 6.0257,3.90201 8.8906,7.85351 3.8527,5.63089 6.1746,8.84056 6.9648,9.63086 3.1612,3.1612 7.1137,4.74219 11.8555,4.74219 4.9045,0 9.8085,-2.68621 14.7129,-8.04297 0.4138,5.08897 1.9438,8.81872 4.6152,11.15625 3.4576,-0.88909 6.272,-1.58223 8.4453,-2.07617 2.4697,-2.76605 4.446,-5.18523 5.9278,-7.25977 1.7782,-3.25998 3.3095,-5.58182 4.5937,-6.96484 1.1855,-2.07454 3.3087,-7.55639 6.3711,-16.44727 3.0624,-8.98966 4.5938,-14.52311 4.5938,-16.59765 0,-4.05029 -0.8879,-6.41982 -2.6661,-7.11133 -1.4818,-0.39516 -2.9634,-0.84005 -4.4453,-1.33399 -0.2963,-1.97575 -0.5942,-3.45744 -0.8906,-4.44531 -1.5806,-0.7903 -3.0623,-1.18555 -4.4453,-1.18555 l -0.5918,0.14844 c -10.4233,10.3519 -17.0607,21.7917 -19.9512,34.31055 -1.1363,1.25316 -2.4041,2.93657 -3.8222,5.10547 -2.766,4.24786 -4.7423,6.91529 -5.9278,8.00195 -2.0745,1.77817 -5.1868,3.01161 -9.3359,3.70313 -3.6551,-1.67939 -7.409,-5.38361 -11.2617,-11.11329 -5.3346,-7.70542 -8.5442,-12.15048 -9.6309,-13.33593 2.2721,-9.68118 4.8899,-17.23856 7.8535,-22.67188 4.4455,-0.98787 10.1259,-4.69209 17.041,-11.11328 6.9151,-6.42119 10.9153,-11.75605 12.002,-16.00391 0.8891,-3.06241 1.334,-6.61962 1.334,-10.66992 0,-8.10057 -2.1729,-13.82872 -6.5196,-17.1875 -0.4939,-0.0988 -0.9884,-0.14843 -1.4824,-0.14843 z m -647.0078,10.51953 c 0.3951,1.28423 0.5918,2.71822 0.5918,4.29882 0,5.13696 -1.7776,10.51951 -5.334,16.15039 -3.4576,5.6309 -7.557,9.48407 -12.2988,11.5586 0.6915,-6.02603 2.3698,-12.24873 5.0371,-18.66992 3.5563,-8.10058 7.5584,-12.54759 12.0039,-13.33789 z m 391.5801,0 c 0.3951,1.28423 0.5918,2.71822 0.5918,4.29882 0,5.13696 -1.7777,10.51951 -5.334,16.15039 -3.4576,5.6309 -7.557,9.48407 -12.2988,11.5586 0.6915,-6.02603 2.3718,-12.24873 5.039,-18.66992 3.5564,-8.10058 7.5565,-12.54759 12.002,-13.33789 z m 254.6875,0 c 0.3951,1.28423 0.5918,2.71822 0.5918,4.29882 0,5.13696 -1.7777,10.51951 -5.334,16.15039 -3.4576,5.6309 -7.557,9.48407 -12.2988,11.5586 0.6915,-6.02603 2.3698,-12.24873 5.0371,-18.66992 3.5563,-8.10058 7.5584,-12.54759 12.0039,-13.33789 z m -814.7598,2 0.035,1.11328 c 0.2963,16.69509 -7.557,35.31547 -23.5606,55.86328 -0.7903,-2.3709 -1.1855,-4.54378 -1.1855,-6.51953 0,-0.69152 0.05,-1.38271 0.1484,-2.07422 1.383,-6.61876 2.7654,-13.28635 4.1485,-20.00391 1.6794,-7.60664 3.7053,-13.83129 6.0761,-18.67187 1.0113,-2.12044 2.1521,-4.11555 3.4004,-6.00977 3.9976,-1.46527 7.6326,-2.6894 10.9375,-3.69726 z m 190.5014,33.12375 c -1.9758,0 -4.248,0.64155 -6.8164,1.92578 l 0,1.33399 c 0,1.67939 0.3476,3.21073 1.039,4.59375 3.6552,1.28424 5.7784,1.92773 6.3711,1.92773 l 0.2969,0 2.0742,-2.07617 c 0,-3.25999 -0.9891,-5.82812 -2.9648,-7.70508 z m -247.3354,-6.52414 c -2.4696,2.66726 -4.001,5.48363 -4.5937,8.44726 0.3951,2.56847 0.5918,5.2359 0.5918,8.00195 0,6.91513 -1.0864,14.96511 -3.2598,24.15235 -0.3951,1.38302 -0.84,4.3464 -1.334,8.89062 -0.4939,3.75392 -1.1354,6.7173 -1.9257,8.89063 -1.2842,3.25999 -1.9258,5.73077 -1.9258,7.41015 0,2.76605 1.1361,5.23488 3.4082,7.40821 1.7782,-0.39515 3.1109,-0.74075 4,-1.03711 3.4576,-18.86842 5.3841,-29.04358 5.7793,-30.52539 2.3709,-9.28603 3.5566,-19.21294 3.5566,-29.78321 0,-4.05029 -0.1966,-6.66806 -0.5918,-7.85351 -1.383,-1.97575 -2.6184,-3.31044 -3.7051,-4.00195 z m 681.8907,2.66796 1.3339,0 -1.7793,9.63086 -1.332,0 z m 254.5996,9.1875 -0.5938,0.14844 c -14.4229,14.3242 -21.6347,30.72205 -21.6347,49.19531 0,6.61876 1.5809,11.31208 4.7421,14.07813 3.4576,-0.88909 6.274,-1.58223 8.4473,-2.07617 2.4697,-2.76605 4.4439,-5.18523 5.9258,-7.25977 1.7781,-3.25998 3.3095,-5.58182 4.5937,-6.96484 1.1855,-2.07454 3.3107,-7.55639 6.3731,-16.44727 3.0624,-8.98966 4.5937,-14.52311 4.5937,-16.59765 0,-4.05029 -0.8897,-6.41982 -2.6679,-7.11133 -1.4818,-0.39516 -2.9635,-0.84005 -4.4453,-1.33399 -0.2964,-1.97575 -0.5924,-3.45744 -0.8887,-4.44531 -1.5806,-0.7903 -3.0623,-1.18555 -4.4453,-1.18555 z m 39.789,10.07618 c -3.4576,0 -9.5333,4.69135 -18.2265,14.07617 -8.5946,9.38481 -12.8926,15.8061 -12.8926,19.26367 0,1.67939 1.0368,2.51953 3.1113,2.51953 1.5806,0 3.2609,-0.39525 5.0391,-1.18555 -1.0867,1.77818 -1.6309,3.55582 -1.6309,5.33399 0,7.01392 7.3608,10.52148 22.0801,10.52148 9.286,0 18.5217,-1.97622 27.709,-5.92773 4.1807,-1.75091 7.5932,-3.70584 10.2617,-5.85742 0.5994,3.21932 1.6106,6.50458 3.0566,9.85937 3.8528,4.05029 8.2979,6.07422 13.336,6.07422 6.1248,0 13.3366,-3.25932 21.6348,-9.7793 8.2981,-6.61876 12.4472,-12.94075 12.4472,-18.96679 0,-2.86484 -0.8401,-4.29688 -2.5195,-4.29688 -1.383,0 -2.7654,0.88784 -4.1485,2.66602 -0.889,1.38302 -1.8285,2.81506 -2.8164,4.29687 -2.1733,3.26 -5.7285,6.62057 -10.6679,10.07813 -5.3346,3.75392 -9.6823,5.63086 -13.041,5.63086 -0.7904,0 -1.5809,-0.0993 -2.3711,-0.29688 l -1.0371,-1.18554 c 2.9636,-3.45757 5.927,-5.7794 8.8906,-6.96485 1.8769,-3.35878 3.8035,-6.7174 5.7793,-10.07617 2.1733,-4.05029 3.2597,-7.65521 3.2597,-10.81641 0,-4.34665 -2.3694,-7.90387 -7.1113,-10.66992 l -2.3711,0 c -6.5199,0 -12.1011,3.06267 -16.7441,9.1875 -2.8989,3.93409 -4.7827,8.13315 -5.6563,12.59766 -6.1885,8.09109 -13.8281,12.14843 -22.9258,12.14843 -1.9757,0 -4.0493,-0.24629 -6.2226,-0.74023 -0.2964,-1.28424 -0.4453,-2.76788 -0.4453,-4.44727 0,-2.56847 0.3456,-6.32233 1.0371,-11.26171 0.6915,-5.03816 1.0391,-8.79204 1.0391,-11.26172 0,-6.81634 -2.2245,-10.22461 -6.67,-10.22461 -0.2963,-0.19758 -0.6896,-0.29492 -1.1836,-0.29492 z m -593.9609,1.48046 c 2.9636,1.28424 4.4453,3.80467 4.4453,7.5586 0,1.87697 -0.3456,3.4083 -1.0371,4.59375 0.6915,2.3709 1.186,4.14853 1.4824,5.33398 -3.7539,6.81634 -6.5206,11.46 -8.2988,13.92969 -2.9636,4.44544 -6.5189,8.5449 -10.668,12.29883 l -3.1113,0 c -0.1976,-1.5806 -0.2969,-3.21124 -0.2969,-4.89063 0,-7.1127 1.4817,-14.27484 4.4453,-21.48632 3.3588,-8.0018 7.7046,-13.78155 13.0391,-17.3379 z m 524.6074,1.03907 c -0.3952,14.91691 -5.8789,27.70985 -16.4492,38.3789 -0.3951,-1.28424 -0.5918,-2.76788 -0.5918,-4.44726 0,-1.18545 0.2959,-2.91344 0.8887,-5.18555 0.2964,-2.76605 0.493,-4.83963 0.5918,-6.22266 2.8648,-4.64301 5.1866,-8.69478 6.9648,-12.15234 1.2842,-2.56848 2.2237,-4.49506 2.8164,-5.7793 1.0867,-1.67938 3.0133,-3.20877 5.7793,-4.59179 z m 33.8613,0 c -0.3951,14.91691 -5.8789,27.70985 -16.4492,38.3789 -0.3951,-1.28424 -0.5918,-2.76788 -0.5918,-4.44726 0,-1.18545 0.296,-2.91344 0.8887,-5.18555 0.2963,-2.76605 0.495,-4.83963 0.5938,-6.22266 2.8648,-4.64301 5.1846,-8.69478 6.9628,-12.15234 1.2843,-2.56848 2.2237,-4.49506 2.8165,-5.7793 1.0866,-1.67938 3.0132,-3.20877 5.7792,-4.59179 z m -838.7636,8.74219 0.8886,0 c 0.1976,0.69151 0.2969,1.43235 0.2969,2.22265 0,3.65514 -1.4836,7.50831 -4.4472,11.55859 -2.7661,3.65514 -5.9261,6.46956 -9.4825,8.44532 l -2.9648,0 c -0.5927,-1.28424 -0.8887,-2.66663 -0.8887,-4.14844 0,-4.34665 1.7299,-8.49577 5.1875,-12.44727 3.4576,-3.9515 7.2611,-5.82843 11.4102,-5.63085 z m 548.7324,0 0.8906,0 c 0.1976,0.69151 0.2949,1.43235 0.2949,2.22265 0,3.65514 -1.4817,7.50831 -4.4453,11.55859 -2.766,3.65514 -5.9261,6.46956 -9.4824,8.44532 l -2.9648,0 c -0.5928,-1.28424 -0.8887,-2.66663 -0.8887,-4.14844 0,-4.34665 1.728,-8.49577 5.1855,-12.44727 3.4576,-3.9515 7.2611,-5.82843 11.4102,-5.63085 z m 384.9238,0 0.8906,0 c 0.1977,0.69151 0.295,1.43235 0.295,2.22265 0,3.65514 -1.4817,7.50831 -4.4453,11.55859 -2.7661,3.65514 -5.9261,6.46956 -9.4825,8.44532 l -2.9648,0 c -0.5927,-1.28424 -0.8887,-2.66663 -0.8887,-4.14844 0,-4.34665 1.7299,-8.49577 5.1875,-12.44727 3.4576,-3.9515 7.2592,-5.82843 11.4082,-5.63085 z m -305.7304,2.51953 c 0.5927,3.9515 0.8906,7.01222 0.8906,9.18554 0,2.07454 -0.6436,4.79161 -1.9278,8.15039 -1.4818,3.9515 -2.3696,6.56929 -2.666,7.85352 -0.7903,0.59273 -1.6304,0.88867 -2.5195,0.88867 -1.7782,0 -4.0008,-0.88784 -6.668,-2.66601 -3.7539,-2.56848 -5.8771,-3.95282 -6.3711,-4.1504 3.1612,-3.25998 6.2716,-6.56896 9.334,-9.92773 3.754,-3.95151 7.063,-7.06188 9.9278,-9.33398 z m 244.8476,0 c 0.5927,3.9515 0.8887,7.01222 0.8887,9.18554 0,2.07454 -0.6416,4.79161 -1.9258,8.15039 -1.4818,3.9515 -2.3716,6.56929 -2.668,7.85352 -0.7902,0.59273 -1.6304,0.88867 -2.5195,0.88867 -1.7781,0 -4.0007,-0.88784 -6.668,-2.66601 -3.7539,-2.56848 -5.8771,-3.95282 -6.3711,-4.1504 3.1612,-3.25998 6.2736,-6.56896 9.336,-9.92773 3.7539,-3.95151 7.0628,-7.06188 9.9277,-9.33398 z m -698.5683,11.55664 c 3.2599,7.40906 4.8886,13.7807 4.8886,19.11523 0,5.63089 -1.6784,11.16434 -5.0371,16.59766 -1.2843,-0.98788 -1.9258,-2.32257 -1.9258,-4.00196 0,-11.0642 0.6912,-21.63461 2.0743,-31.71093 z m -94.1719,1.03711 c -2.4697,7.70543 -4.9386,15.46141 -7.4082,23.26562 -3.0625,8.6933 -6.9653,15.75614 -11.7071,21.18945 -0.099,-0.98787 -0.1484,-2.02466 -0.1484,-3.11132 0,-7.1127 1.9266,-14.57079 5.7793,-22.375 3.4576,-7.1127 7.9523,-13.43665 13.4844,-18.96875 z m 391.5801,0 c -2.4698,7.70543 -4.9386,15.46141 -7.4082,23.26562 -3.0624,8.6933 -6.9653,15.75614 -11.7071,21.18945 -0.099,-0.98787 -0.1484,-2.02466 -0.1484,-3.11132 0,-7.1127 1.9265,-14.57079 5.7793,-22.375 3.4575,-7.1127 7.9522,-13.43665 13.4844,-18.96875 z m 254.6875,0 c -2.4697,7.70543 -4.9405,15.46141 -7.4102,23.26562 -3.0624,8.6933 -6.9633,15.75614 -11.7051,21.18945 -0.099,-0.98787 -0.1484,-2.02466 -0.1484,-3.11132 0,-7.1127 1.9266,-14.57079 5.7793,-22.375 3.4576,-7.1127 7.9523,-13.43665 13.4844,-18.96875 z m -335.7344,30.08203 c 0,0.98787 0.048,2.56886 0.1465,4.74219 l 0,4.88867 c 0,13.92904 -4.5425,25.83413 -13.6309,35.71289 -7.1127,-1.38303 -10.6699,-5.63144 -10.6699,-12.74414 0,-3.06242 0.5919,-6.56999 1.7773,-10.52149 l 3.2617,-10.07617 c 2.9636,-2.46969 5.9767,-4.88887 9.0391,-7.25976 4.1491,-3.06242 7.5077,-4.64341 10.0762,-4.74219 z"
         transform="translate(0,-27.637855)"
         id="path8395"
         inkscape:connector-curvature="0" />
    </g>
  </g>
  <g
     inkscape:groupmode="layer"
     id="layer6"
     inkscape:label="back"
     transform="translate(3311.2485,527.54967)">
    <g
       transform="translate(1033.0961,525.74024)"
       inkscape:label="0"
       id="g8533"
       style="display:inline;enable-background:new">
      <path
         inkscape:connector-curvature="0"
         style="fill:none;stroke:#000000"
         d="m -1041.7323,225.59055 0,-392.12598 333.07088,0 0,-21.25985 354.33071,0 0,21.25985 333.070867,0 0,392.12598 21.259843,0 0,413.38583 -21.259843,0 0,392.12602 -333.070867,0 0,21.2598 -354.33071,0 0,-21.2598 -333.07088,0 0,-392.12602 -21.2598,0 0,-413.38583 21.2598,0 z"
         id="path8535" />
    </g>
  </g>
  <g
     inkscape:groupmode="layer"
     id="layer7"
     inkscape:label="sides"
     style="display:inline"
     transform="translate(3311.2485,527.54967)">
    <path
       style="display:inline;fill:none;fill-rule:evenodd;stroke:#000000;stroke-width:1;stroke-linecap:butt;stroke-linejoin:miter;stroke-miterlimit:8;stroke-dasharray:none;stroke-opacity:1;filter:url(#filter8569);enable-background:new"
       d="m -3133.5845,-527.04967 0,21.2597 -177.164,0 0,392.125 21.2597,0 0,413.3867 -21.2597,0 0,392.125 177.164,0 0,21.2598 177.1661,0 0,-21.2598 177.166,0 0,-392.125 -21.2598,0 0,-413.3867 21.2598,0 0,-392.125 -177.166,0 0,-21.2597 -177.1661,0 z m -26.0488,73.9472 60.5293,0 c 1.4804,9.3302 9.5373,16.4727 19.2832,16.4727 9.7467,0 17.806,-7.1425 19.2871,-16.4727 l 130.166,0 c 10.6984,0 19.6048,17.3506 21.9434,40.7852 -27.2244,14.8183 -62.0754,27.7334 -95.3398,37.1679 -3.5109,-5.2139 -9.4669,-8.6445 -16.2247,-8.6445 -10.1333,0 -18.461,7.7062 -19.4531,17.5742 -12.3846,2.6712 -23.9742,4.6953 -34.1543,5.9532 -52.1911,6.4175 -105.8598,12.9113 -145.7871,27.2285 l 0,-65.6797 37.2188,0 c 0,-0.4537 -0.018,-0.9031 -0.018,-1.3594 0,-29.3777 10.0568,-53.0254 22.5488,-53.0254 z m 289.0156,54.3848 0,87.1777 c 0.1929,0 0.3843,-0.033 0.5782,-0.033 12.4535,0 22.4804,23.5746 22.4804,52.8613 l 0,289.662207 c -26.2284,-21.4057 -60.9267,-40.0268 -98.8652,-57.3262 7.4834,-33.632504 12.3301,-66.553704 12.3301,-95.974607 0,-84.8005 -20.6231,-177.7149 -20.6231,-177.7149 0,-5.7108 -29.0325,-12.7011 -90.2871,-12.7011 -61.2493,0 -90.2812,6.9903 -90.2812,12.7011 0,0 -8.6612,45.1477 -10.5176,56.1953 -1.8564,11.0476 -0.9907,6.5266 -1.4805,9.9356 -0.4271,2.9728 -0.8515,6.0169 -1.2676,9.1269 -0.3523,2.6332 0.6322,-9.0065 -1.039,8.0352 -1.5178,15.4768 -5.4788,53.198 -6.1953,84.9785 -33.1819,-23.4574 -64.4224,-49.8506 -86.6563,-75.8945 l 0,-51.0235 c 0,-29.2867 10.0252,-52.8613 22.4785,-52.8613 0.1941,0 0.3872,0.033 0.5801,0.033 l 0,-2.4511 c 36.1158,-16.4905 93.7745,-24.5172 153.4844,-31.8594 10.881,-1.338 21.8181,-2.6553 32.6914,-4.0117 3.4817,3.2027 8.1136,5.1738 13.2187,5.1738 6.947,0 13.033,-3.6346 16.5,-9.0957 57.0154,-8.0539 108.3565,-19.3107 132.8711,-44.9336 z m -371.8242,260.4863 c 23.9221,18.4194 54.6969,34.7407 88.4649,50.109403 13.4442,127.793604 93.0527,294.579597 93.0527,320.214797 l 0,164.8067 c -57.9417,35.6609 -116.554,72.3764 -158.459,117.1758 l 0,-16.4825 c -0.1929,0 -0.386,0.031 -0.5801,0.031 -12.4533,0 -22.4785,-23.579 -22.4785,-52.8652 l 0,-582.9903 z m 290.3203,135.722707 c 46.0767,22.1544 84.2031,45.6262 104.5625,72.1543 l 0,95.423803 c -38.4476,79.98219 -119.5145,164.87999 -181.0254,210.33789 l 0,-143.0899 c 0,-18.8774 49.0419,-127.13849 76.4629,-234.826093 z m 104.5625,280.638593 0,166.629 c 0,29.2867 -10.0269,52.8652 -22.4804,52.8652 -0.1939,0 -0.3853,-0.031 -0.5782,-0.031 l 0,87.1758 -37.2187,0 c 0,0.4536 0.018,0.9049 0.018,1.3613 0,29.3776 -10.0571,53.0293 -22.5489,53.0293 l -89.041,0 c -2.8632,-0.4981 -5.9315,-0.9179 -9.1758,-1.2421 l 0,-223.0918 c 68.2123,-41.8391 137.9603,-83.3896 181.0254,-136.6954 z m -213.3652,156.7188 0,203.0215 c -3.4291,0.3307 -6.6751,0.7654 -9.6856,1.289 l -89.0234,0 c -12.492,0 -22.5488,-23.6517 -22.5488,-53.0293 0,-0.4564 0.018,-0.9077 0.018,-1.3613 l -37.2188,0 0,-18.3965 c 33.2716,-48.6206 93.2679,-90.625 158.459,-131.5234 z"
       id="path7463-8"
       inkscape:connector-curvature="0" />
    <path
       inkscape:connector-curvature="0"
       id="path7465"
       style="display:inline;fill:none;stroke:none;stroke-width:5;stroke-linecap:butt;stroke-linejoin:miter;stroke-miterlimit:4.13043499;stroke-dasharray:none;stroke-opacity:1;filter:url(#filter8569);enable-background:new"
       d="m -3029.881,637.91553 0,-405.5988 c 0,-26.2024 94.49,-224.614493 94.49,-354.6682 0,-84.8005 -20.6228,-177.7139 -20.6228,-177.7139 0,-5.7108 -29.0314,-12.7024 -90.286,-12.7024 -61.2493,0 -90.2811,6.9916 -90.2811,12.7024 0,0 -8.6622,45.1463 -10.5186,56.1939 -1.8564,11.0476 -0.9906,6.5261 -1.4804,9.9351 -0.4271,2.9728 -0.8503,6.0172 -1.2664,9.1272 -0.3523,2.6332 0.6311,-9.005 -1.0401,8.0367 -1.6712,17.0417 -6.3173,61.0768 -6.3173,94.4259 0,130.048807 94.9829,326.4388 94.9829,354.4379 l 0,405.7774 c -18.244,1.7597 -31.303,6.4472 -31.303,11.961 0,7.0197 21.1438,12.7068 47.224,12.7068 26.0851,0 47.224,-5.6871 47.224,-12.7068 0,-5.4618 -12.8195,-10.1167 -30.8052,-11.9142 z"
       sodipodi:nodetypes="csscsccsscsscsssc" />
    <path
       d="m -2979.9048,-480.18657 c 0,10.7969 -8.7516,19.5529 -19.5486,19.5529 -10.8017,0 -19.5533,-8.756 -19.5533,-19.5529 0,-10.7974 8.7516,-19.5533 19.5533,-19.5533 10.797,0 19.5486,8.7559 19.5486,19.5533"
       style="display:inline;fill:none;fill-opacity:1;fill-rule:nonzero;stroke:#ff0000;stroke-width:5;stroke-miterlimit:4.13043499;stroke-dasharray:none;stroke-opacity:1;filter:url(#filter8569);enable-background:new"
       id="path7471"
       inkscape:connector-curvature="0" />
    <path
       d="m -3060.2673,-456.18347 c 0,10.7972 -8.7559,19.5533 -19.5535,19.5533 -10.7968,0 -19.5482,-8.7561 -19.5482,-19.5533 0,-10.797 8.7515,-19.553 19.5482,-19.553 10.7974,0 19.5535,8.756 19.5535,19.553"
       style="display:inline;fill:none;fill-opacity:1;fill-rule:nonzero;stroke:#ff0000;stroke-width:5;stroke-miterlimit:4.13043499;stroke-dasharray:none;stroke-opacity:1;filter:url(#filter8569);enable-background:new"
       id="path7473"
       inkscape:connector-curvature="0" />
    <path
       d="m -3058.8419,-284.20407 c 0,10.7974 -8.756,19.5533 -19.5534,19.5533 -10.7969,0 -19.5486,-8.7559 -19.5486,-19.5533 0,-10.7969 8.7517,-19.5529 19.5486,-19.5529 10.7974,0 19.5534,8.756 19.5534,19.5529"
       style="display:inline;fill:none;fill-opacity:1;fill-rule:nonzero;stroke:#ff0000;stroke-width:5;stroke-miterlimit:4.13043499;stroke-dasharray:none;stroke-opacity:1;filter:url(#filter8569);enable-background:new"
       id="path7475"
       inkscape:connector-curvature="0" />
    <path
       d="m -3005.132,-220.26817 c 0,10.7974 -8.7514,19.5534 -19.5483,19.5534 -10.802,0 -19.5534,-8.756 -19.5534,-19.5534 0,-10.7968 8.7514,-19.5528 19.5534,-19.5528 10.7969,0 19.5483,8.756 19.5483,19.5528"
       style="display:inline;fill:none;fill-opacity:1;fill-rule:nonzero;stroke:#ff0000;stroke-width:5;stroke-miterlimit:4.13043499;stroke-dasharray:none;stroke-opacity:1;filter:url(#filter8569);enable-background:new"
       id="path7477"
       inkscape:connector-curvature="0" />
    <path
       d="m -2971.9048,-144.08317 c 0,10.7971 -8.7516,19.553 -19.5486,19.553 -10.8017,0 -19.5533,-8.7559 -19.5533,-19.553 0,-10.7972 8.7516,-19.5533 19.5533,-19.5533 10.797,0 19.5486,8.7561 19.5486,19.5533"
       style="display:inline;fill:none;fill-opacity:1;fill-rule:nonzero;stroke:#ff0000;stroke-width:5;stroke-miterlimit:4.13043499;stroke-dasharray:none;stroke-opacity:1;filter:url(#filter8569);enable-background:new"
       id="path7479"
       inkscape:connector-curvature="0" />
    <path
       d="m -2938.799,-118.35307 c 0,10.7973 -8.7557,19.553303 -19.5527,19.553303 -10.7973,0 -19.5533,-8.756003 -19.5533,-19.553303 0,-10.797 8.756,-19.5529 19.5533,-19.5529 10.797,0 19.5527,8.7559 19.5527,19.5529"
       style="display:inline;fill:none;fill-opacity:1;fill-rule:nonzero;stroke:#ff0000;stroke-width:5;stroke-miterlimit:4.13043499;stroke-dasharray:none;stroke-opacity:1;filter:url(#filter8569);enable-background:new"
       id="path7481"
       inkscape:connector-curvature="0" />
    <path
       d="m -3011.7763,-114.44657 c 0,10.797 -8.756,19.552903 -19.5534,19.552903 -10.797,0 -19.5484,-8.755903 -19.5484,-19.552903 0,-10.7973 8.7514,-19.5532 19.5484,-19.5532 10.7974,0 19.5534,8.7559 19.5534,19.5532"
       style="display:inline;fill:none;fill-opacity:1;fill-rule:nonzero;stroke:#ff0000;stroke-width:5;stroke-miterlimit:4.13043499;stroke-dasharray:none;stroke-opacity:1;filter:url(#filter8569);enable-background:new"
       id="path7483"
       inkscape:connector-curvature="0" />
    <path
       d="m -3045.3421,-126.41117 c 0,10.7973 -8.7561,19.5532 -19.5534,19.5532 -10.797,0 -19.5485,-8.7559 -19.5485,-19.5532 0,-10.7969 8.7515,-19.553 19.5485,-19.553 10.7973,0 19.5534,8.7561 19.5534,19.553"
       style="display:inline;fill:none;fill-opacity:1;fill-rule:nonzero;stroke:#ff0000;stroke-width:5;stroke-miterlimit:4.13043499;stroke-dasharray:none;stroke-opacity:1;filter:url(#filter8569);enable-background:new"
       id="path7485"
       inkscape:connector-curvature="0" />
    <path
       d="m -3116.099,-137.90417 c 0,10.797 -8.7516,19.5529 -19.5533,19.5529 -10.7969,0 -19.5485,-8.7559 -19.5485,-19.5529 0,-10.7973 8.7516,-19.5534 19.5485,-19.5534 10.8017,0 19.5533,8.7561 19.5533,19.5534"
       style="display:inline;fill:none;fill-opacity:1;fill-rule:nonzero;stroke:#ff0000;stroke-width:5;stroke-miterlimit:4.13043499;stroke-dasharray:none;stroke-opacity:1;filter:url(#filter8569);enable-background:new"
       id="path7487"
       inkscape:connector-curvature="0" />
    <path
       d="m -3078.3952,-74.651067 c 0,10.797 -8.7515,19.5529 -19.5533,19.5529 -10.797,0 -19.5484,-8.7559 -19.5484,-19.5529 0,-10.7972 8.7514,-19.5532 19.5484,-19.5532 10.8018,0 19.5533,8.756 19.5533,19.5532"
       style="display:inline;fill:none;fill-opacity:1;fill-rule:nonzero;stroke:#ff0000;stroke-width:5;stroke-miterlimit:4.13043499;stroke-dasharray:none;stroke-opacity:1;filter:url(#filter8569);enable-background:new"
       id="path7489"
       inkscape:connector-curvature="0" />
    <path
       d="m -3108.6183,-40.699967 c 0,10.797104 -8.7513,19.553204 -19.5533,19.553204 -10.7968,0 -19.5482,-8.7561 -19.5482,-19.553204 0,-10.797 8.7514,-19.553 19.5482,-19.553 10.802,0 19.5533,8.756 19.5533,19.553"
       style="display:inline;fill:none;fill-opacity:1;fill-rule:nonzero;stroke:#ff0000;stroke-width:5;stroke-miterlimit:4.13043499;stroke-dasharray:none;stroke-opacity:1;filter:url(#filter8569);enable-background:new"
       id="path7491"
       inkscape:connector-curvature="0" />
    <path
       d="m -3005.132,-67.901167 c 0,10.7972 -8.7514,19.5533 -19.5483,19.5533 -10.802,0 -19.5534,-8.7561 -19.5534,-19.5533 0,-10.7971 8.7514,-19.5529 19.5534,-19.5529 10.7969,0 19.5483,8.7558 19.5483,19.5529"
       style="display:inline;fill:none;fill-opacity:1;fill-rule:nonzero;stroke:#ff0000;stroke-width:5;stroke-miterlimit:4.13043499;stroke-dasharray:none;stroke-opacity:1;filter:url(#filter8569);enable-background:new"
       id="path7493"
       inkscape:connector-curvature="0" />
    <path
       d="m -2946.8254,-74.651067 c 0,10.797 -8.7559,19.5529 -19.5528,19.5529 -10.7974,0 -19.5533,-8.7559 -19.5533,-19.5529 0,-10.7972 8.7559,-19.5532 19.5533,-19.5532 10.7969,0 19.5528,8.756 19.5528,19.5532"
       style="display:inline;fill:none;fill-opacity:1;fill-rule:nonzero;stroke:#ff0000;stroke-width:5;stroke-miterlimit:4.13043499;stroke-dasharray:none;stroke-opacity:1;filter:url(#filter8569);enable-background:new"
       id="path7495"
       inkscape:connector-curvature="0" />
    <path
       d="m -2956.2234,-17.670963 c 0,10.7968 -8.7516,19.5528 -19.5531,19.5528 -10.7973,0 -19.5488,-8.756 -19.5488,-19.5528 0,-10.7976 8.7515,-19.553304 19.5488,-19.553304 10.8015,0 19.5531,8.755704 19.5531,19.553304"
       style="display:inline;fill:none;fill-opacity:1;fill-rule:nonzero;stroke:#ff0000;stroke-width:5;stroke-miterlimit:4.13043499;stroke-dasharray:none;stroke-opacity:1;filter:url(#filter8569);enable-background:new"
       id="path7497"
       inkscape:connector-curvature="0" />
    <path
       d="m -2995.3253,-8.625763 c 0,10.797 -8.756,19.553 -19.5534,19.553 -10.7969,0 -19.5529,-8.756 -19.5529,-19.553 0,-10.7972 8.756,-19.5533 19.5529,-19.5533 10.7974,0 19.5534,8.7561 19.5534,19.5533"
       style="display:inline;fill:none;fill-opacity:1;fill-rule:nonzero;stroke:#ff0000;stroke-width:5;stroke-miterlimit:4.13043499;stroke-dasharray:none;stroke-opacity:1;filter:url(#filter8569);enable-background:new"
       id="path7499"
       inkscape:connector-curvature="0" />
    <path
       d="m -3009.8242,21.432537 c 0,10.7973 -8.7517,19.5484 -19.5485,19.5484 -10.8019,0 -19.5534,-8.7511 -19.5534,-19.5484 0,-10.797 8.7515,-19.5529 19.5534,-19.5529 10.7969,0 19.5485,8.7559 19.5485,19.5529"
       style="display:inline;fill:none;fill-opacity:1;fill-rule:nonzero;stroke:#ff0000;stroke-width:5;stroke-miterlimit:4.13043499;stroke-dasharray:none;stroke-opacity:1;filter:url(#filter8569);enable-background:new"
       id="path7501"
       inkscape:connector-curvature="0" />
    <path
       d="m -3055.5749,-4.448763 c 0,10.7975 -8.7561,19.5533 -19.5534,19.5533 -10.7969,0 -19.5482,-8.7558 -19.5482,-19.5533 0,-10.7969 8.7513,-19.5528 19.5482,-19.5528 10.7973,0 19.5534,8.7559 19.5534,19.5528"
       style="display:inline;fill:none;fill-opacity:1;fill-rule:nonzero;stroke:#ff0000;stroke-width:5;stroke-miterlimit:4.13043499;stroke-dasharray:none;stroke-opacity:1;filter:url(#filter8569);enable-background:new"
       id="path7503"
       inkscape:connector-curvature="0" />
    <path
       d="m -3064.8952,51.076337 c 0,10.7969 -8.7557,19.5528 -19.5532,19.5528 -10.7969,0 -19.5484,-8.7559 -19.5484,-19.5528 0,-10.7974 8.7515,-19.5533 19.5484,-19.5533 10.7975,0 19.5532,8.7559 19.5532,19.5533"
       style="display:inline;fill:none;fill-opacity:1;fill-rule:nonzero;stroke:#ff0000;stroke-width:5;stroke-miterlimit:4.13043499;stroke-dasharray:none;stroke-opacity:1;filter:url(#filter8569);enable-background:new"
       id="path7505"
       inkscape:connector-curvature="0" />
    <path
       d="m -3058.8419,90.177637 c 0,10.801803 -8.756,19.553303 -19.5534,19.553303 -10.7969,0 -19.5486,-8.7515 -19.5486,-19.553303 0,-10.7969 8.7517,-19.5485 19.5486,-19.5485 10.7974,0 19.5534,8.7516 19.5534,19.5485"
       style="display:inline;fill:none;fill-opacity:1;fill-rule:nonzero;stroke:#ff0000;stroke-width:5;stroke-miterlimit:4.13043499;stroke-dasharray:none;stroke-opacity:1;filter:url(#filter8569);enable-background:new"
       id="path7507"
       inkscape:connector-curvature="0" />
    <path
       d="m -2985.7768,71.184437 c 0,10.8017 -8.7516,19.5533 -19.5485,19.5533 -10.8018,0 -19.5534,-8.7516 -19.5534,-19.5533 0,-10.797 8.7516,-19.5486 19.5534,-19.5486 10.7969,0 19.5485,8.7516 19.5485,19.5486"
       style="display:inline;fill:none;fill-opacity:1;fill-rule:nonzero;stroke:#ff0000;stroke-width:5;stroke-miterlimit:4.13043499;stroke-dasharray:none;stroke-opacity:1;filter:url(#filter8569);enable-background:new"
       id="path7509"
       inkscape:connector-curvature="0" />
    <path
       d="m -3029.3727,127.28384 c 0,10.7974 -8.7559,19.5484 -19.5534,19.5484 -10.7969,0 -19.5483,-8.751 -19.5483,-19.5484 0,-10.8019 8.7514,-19.5529 19.5483,-19.5529 10.7975,0 19.5534,8.751 19.5534,19.5529"
       style="display:inline;fill:none;fill-opacity:1;fill-rule:nonzero;stroke:#ff0000;stroke-width:5;stroke-miterlimit:4.13043499;stroke-dasharray:none;stroke-opacity:1;filter:url(#filter8569);enable-background:new"
       id="path7511"
       inkscape:connector-curvature="0" />
    <path
       d="m -3005.132,156.79034 c 0,10.8017 -8.7514,19.55269 -19.5483,19.55269 -10.802,0 -19.5534,-8.75099 -19.5534,-19.55269 0,-10.7976 8.7514,-19.5486 19.5534,-19.5486 10.7969,0 19.5483,8.751 19.5483,19.5486"
       style="display:inline;fill:none;fill-opacity:1;fill-rule:nonzero;stroke:#ff0000;stroke-width:5;stroke-miterlimit:4.13043499;stroke-dasharray:none;stroke-opacity:1;filter:url(#filter8569);enable-background:new"
       id="path7513"
       inkscape:connector-curvature="0" />
    <path
       d="m -3031.3292,192.43613 c 0,10.7972 -8.7515,19.5533 -19.5532,19.5533 -10.7971,0 -19.5486,-8.7561 -19.5486,-19.5533 0,-10.8019 8.7515,-19.553 19.5486,-19.553 10.8017,0 19.5532,8.7511 19.5532,19.553"
       style="display:inline;fill:none;fill-opacity:1;fill-rule:nonzero;stroke:#ff0000;stroke-width:5;stroke-miterlimit:4.13043499;stroke-dasharray:none;stroke-opacity:1;filter:url(#filter8569);enable-background:new"
       id="path7515"
       inkscape:connector-curvature="0" />
    <path
       inkscape:connector-curvature="0"
       id="path7517"
       style="display:inline;fill:none;stroke:#ff0000;stroke-width:5;stroke-linecap:butt;stroke-linejoin:miter;stroke-miterlimit:4.13043499;stroke-dasharray:none;stroke-opacity:1;filter:url(#filter8569);enable-background:new"
       d="m -3028.5845,637.91553 0,-405.5988 c 0,-26.2024 94.49,-224.614493 94.49,-354.6682 0,-84.8005 -20.6228,-177.7139 -20.6228,-177.7139 0,-5.7108 -29.0314,-12.7024 -90.286,-12.7024 -61.2493,0 -90.2811,6.9916 -90.2811,12.7024 0,0 -8.6622,45.1463 -10.5186,56.1939 -1.8564,11.0476 -0.9906,6.5261 -1.4804,9.9351 -0.4271,2.9728 -0.8503,6.0172 -1.2664,9.1272 -0.3523,2.6332 0.6311,-9.005 -1.0401,8.0367 -1.6712,17.0417 -6.3173,61.0768 -6.3173,94.4259 0,130.048807 94.9829,326.4388 94.9829,354.4379 l 0,405.7774 c -18.244,1.7597 -31.303,6.4472 -31.303,11.961 0,7.0197 21.1438,12.7068 47.224,12.7068 26.0851,0 47.224,-5.6871 47.224,-12.7068 0,-5.4618 -12.8195,-10.1167 -30.8052,-11.9142 z"
       sodipodi:nodetypes="csscsccsscsscsssc" />
    <path
       inkscape:connector-curvature="0"
       id="path7519"
       style="display:inline;fill:none;fill-opacity:1;fill-rule:nonzero;stroke:#ff0000;stroke-width:5;stroke-miterlimit:4.13043499;stroke-dasharray:none;stroke-opacity:1;filter:url(#filter8569);enable-background:new"
       d="m -3000.4396,-364.24197 c 0,10.7969 -8.7515,19.553 -19.5484,19.553 -10.8018,0 -19.5532,-8.7561 -19.5532,-19.553 0,-10.7973 8.7514,-19.5533 19.5532,-19.5533 10.7969,0 19.5484,8.756 19.5484,19.5533" />
    <path
       sodipodi:nodetypes="csscsccsscsscsssc"
       d="m -3029.8815,637.91653 0,-405.5988 c 0,-26.2024 94.49,-224.614493 94.49,-354.6682 0,-84.8005 -20.6228,-177.7139 -20.6228,-177.7139 0,-5.7108 -29.0314,-12.7024 -90.286,-12.7024 -61.2493,0 -90.2811,6.9916 -90.2811,12.7024 0,0 -8.6622,45.1463 -10.5186,56.1939 -1.8564,11.0476 -0.9906,6.5261 -1.4804,9.9351 -0.4271,2.9728 -0.8503,6.0172 -1.2664,9.1272 -0.3523,2.6332 0.6311,-9.005 -1.0401,8.0367 -1.6712,17.0417 -6.3173,61.0768 -6.3173,94.4259 0,130.048807 94.9829,326.4388 94.9829,354.4379 l 0,405.7774 c -18.244,1.7597 -31.303,6.4472 -31.303,11.961 0,7.0197 21.1438,12.7068 47.224,12.7068 26.0851,0 47.224,-5.6871 47.224,-12.7068 0,-5.4618 -12.8195,-10.1167 -30.8052,-11.9142 z"
       style="display:inline;fill:none;stroke:none;stroke-width:5;stroke-linecap:butt;stroke-linejoin:miter;stroke-miterlimit:4.13043499;stroke-dasharray:none;stroke-opacity:1;filter:url(#filter8569);enable-background:new"
       id="path7898"
       inkscape:connector-curvature="0" />
    <path
       inkscape:connector-curvature="0"
       id="path7904"
       style="display:inline;fill:none;fill-opacity:1;fill-rule:nonzero;stroke:#ff0000;stroke-width:5;stroke-miterlimit:4.13043499;stroke-dasharray:none;stroke-opacity:1;filter:url(#filter8569);enable-background:new"
       d="m -3058.8424,-284.20307 c 0,10.7974 -8.756,19.5533 -19.5534,19.5533 -10.7969,0 -19.5486,-8.7559 -19.5486,-19.5533 0,-10.7969 8.7517,-19.5529 19.5486,-19.5529 10.7974,0 19.5534,8.756 19.5534,19.5529" />
    <path
       inkscape:connector-curvature="0"
       id="path7906"
       style="display:inline;fill:none;fill-opacity:1;fill-rule:nonzero;stroke:#ff0000;stroke-width:5;stroke-miterlimit:4.13043499;stroke-dasharray:none;stroke-opacity:1;filter:url(#filter8569);enable-background:new"
       d="m -3005.1325,-220.26717 c 0,10.7974 -8.7514,19.5534 -19.5483,19.5534 -10.802,0 -19.5534,-8.756 -19.5534,-19.5534 0,-10.7968 8.7514,-19.5528 19.5534,-19.5528 10.7969,0 19.5483,8.756 19.5483,19.5528" />
    <path
       inkscape:connector-curvature="0"
       id="path7908"
       style="display:inline;fill:none;fill-opacity:1;fill-rule:nonzero;stroke:#ff0000;stroke-width:5;stroke-miterlimit:4.13043499;stroke-dasharray:none;stroke-opacity:1;filter:url(#filter8569);enable-background:new"
       d="m -2971.9053,-144.08217 c 0,10.7971 -8.7516,19.553 -19.5486,19.553 -10.8017,0 -19.5533,-8.7559 -19.5533,-19.553 0,-10.7972 8.7516,-19.5533 19.5533,-19.5533 10.797,0 19.5486,8.7561 19.5486,19.5533" />
    <path
       inkscape:connector-curvature="0"
       id="path7910"
       style="display:inline;fill:none;fill-opacity:1;fill-rule:nonzero;stroke:#ff0000;stroke-width:5;stroke-miterlimit:4.13043499;stroke-dasharray:none;stroke-opacity:1;filter:url(#filter8569);enable-background:new"
       d="m -2938.7995,-118.35207 c 0,10.7973 -8.7557,19.553303 -19.5527,19.553303 -10.7973,0 -19.5533,-8.756003 -19.5533,-19.553303 0,-10.797 8.756,-19.5529 19.5533,-19.5529 10.797,0 19.5527,8.7559 19.5527,19.5529" />
    <path
       inkscape:connector-curvature="0"
       id="path7912"
       style="display:inline;fill:none;fill-opacity:1;fill-rule:nonzero;stroke:#ff0000;stroke-width:5;stroke-miterlimit:4.13043499;stroke-dasharray:none;stroke-opacity:1;filter:url(#filter8569);enable-background:new"
       d="m -3011.7768,-114.44557 c 0,10.797 -8.756,19.552903 -19.5534,19.552903 -10.797,0 -19.5484,-8.755903 -19.5484,-19.552903 0,-10.7973 8.7514,-19.5532 19.5484,-19.5532 10.7974,0 19.5534,8.7559 19.5534,19.5532" />
    <path
       inkscape:connector-curvature="0"
       id="path7914"
       style="display:inline;fill:none;fill-opacity:1;fill-rule:nonzero;stroke:#ff0000;stroke-width:5;stroke-miterlimit:4.13043499;stroke-dasharray:none;stroke-opacity:1;filter:url(#filter8569);enable-background:new"
       d="m -3045.3426,-126.41017 c 0,10.7973 -8.7561,19.5532 -19.5534,19.5532 -10.797,0 -19.5485,-8.7559 -19.5485,-19.5532 0,-10.7969 8.7515,-19.553 19.5485,-19.553 10.7973,0 19.5534,8.7561 19.5534,19.553" />
    <path
       inkscape:connector-curvature="0"
       id="path7916"
       style="display:inline;fill:none;fill-opacity:1;fill-rule:nonzero;stroke:#ff0000;stroke-width:5;stroke-miterlimit:4.13043499;stroke-dasharray:none;stroke-opacity:1;filter:url(#filter8569);enable-background:new"
       d="m -3116.0995,-137.90317 c 0,10.797 -8.7516,19.5529 -19.5533,19.5529 -10.7969,0 -19.5485,-8.7559 -19.5485,-19.5529 0,-10.7973 8.7516,-19.5534 19.5485,-19.5534 10.8017,0 19.5533,8.7561 19.5533,19.5534" />
    <path
       inkscape:connector-curvature="0"
       id="path7918"
       style="display:inline;fill:none;fill-opacity:1;fill-rule:nonzero;stroke:#ff0000;stroke-width:5;stroke-miterlimit:4.13043499;stroke-dasharray:none;stroke-opacity:1;filter:url(#filter8569);enable-background:new"
       d="m -3078.3957,-74.650067 c 0,10.797 -8.7515,19.5529 -19.5533,19.5529 -10.797,0 -19.5484,-8.7559 -19.5484,-19.5529 0,-10.7972 8.7514,-19.5532 19.5484,-19.5532 10.8018,0 19.5533,8.756 19.5533,19.5532" />
    <path
       inkscape:connector-curvature="0"
       id="path7920"
       style="display:inline;fill:none;fill-opacity:1;fill-rule:nonzero;stroke:#ff0000;stroke-width:5;stroke-miterlimit:4.13043499;stroke-dasharray:none;stroke-opacity:1;filter:url(#filter8569);enable-background:new"
       d="m -3108.6188,-40.698967 c 0,10.797104 -8.7513,19.553204 -19.5533,19.553204 -10.7968,0 -19.5482,-8.7561 -19.5482,-19.553204 0,-10.797 8.7514,-19.553 19.5482,-19.553 10.802,0 19.5533,8.756 19.5533,19.553" />
    <path
       inkscape:connector-curvature="0"
       id="path7922"
       style="display:inline;fill:none;fill-opacity:1;fill-rule:nonzero;stroke:#ff0000;stroke-width:5;stroke-miterlimit:4.13043499;stroke-dasharray:none;stroke-opacity:1;filter:url(#filter8569);enable-background:new"
       d="m -3005.1325,-67.900167 c 0,10.7972 -8.7514,19.5533 -19.5483,19.5533 -10.802,0 -19.5534,-8.7561 -19.5534,-19.5533 0,-10.7971 8.7514,-19.5529 19.5534,-19.5529 10.7969,0 19.5483,8.7558 19.5483,19.5529" />
    <path
       inkscape:connector-curvature="0"
       id="path7924"
       style="display:inline;fill:none;fill-opacity:1;fill-rule:nonzero;stroke:#ff0000;stroke-width:5;stroke-miterlimit:4.13043499;stroke-dasharray:none;stroke-opacity:1;filter:url(#filter8569);enable-background:new"
       d="m -2946.8259,-74.650067 c 0,10.797 -8.7559,19.5529 -19.5528,19.5529 -10.7974,0 -19.5533,-8.7559 -19.5533,-19.5529 0,-10.7972 8.7559,-19.5532 19.5533,-19.5532 10.7969,0 19.5528,8.756 19.5528,19.5532" />
    <path
       inkscape:connector-curvature="0"
       id="path7926"
       style="display:inline;fill:none;fill-opacity:1;fill-rule:nonzero;stroke:#ff0000;stroke-width:5;stroke-miterlimit:4.13043499;stroke-dasharray:none;stroke-opacity:1;filter:url(#filter8569);enable-background:new"
       d="m -2956.2239,-17.669963 c 0,10.7968 -8.7516,19.5528 -19.5531,19.5528 -10.7973,0 -19.5488,-8.756 -19.5488,-19.5528 0,-10.7976 8.7515,-19.553304 19.5488,-19.553304 10.8015,0 19.5531,8.755704 19.5531,19.553304" />
    <path
       inkscape:connector-curvature="0"
       id="path7928"
       style="display:inline;fill:none;fill-opacity:1;fill-rule:nonzero;stroke:#ff0000;stroke-width:5;stroke-miterlimit:4.13043499;stroke-dasharray:none;stroke-opacity:1;filter:url(#filter8569);enable-background:new"
       d="m -2995.3258,-8.624763 c 0,10.797 -8.756,19.553 -19.5534,19.553 -10.7969,0 -19.5529,-8.756 -19.5529,-19.553 0,-10.7972 8.756,-19.5533 19.5529,-19.5533 10.7974,0 19.5534,8.7561 19.5534,19.5533" />
    <path
       inkscape:connector-curvature="0"
       id="path7930"
       style="display:inline;fill:none;fill-opacity:1;fill-rule:nonzero;stroke:#ff0000;stroke-width:5;stroke-miterlimit:4.13043499;stroke-dasharray:none;stroke-opacity:1;filter:url(#filter8569);enable-background:new"
       d="m -3009.8247,21.433537 c 0,10.7973 -8.7517,19.5484 -19.5485,19.5484 -10.8019,0 -19.5534,-8.7511 -19.5534,-19.5484 0,-10.797 8.7515,-19.5529 19.5534,-19.5529 10.7969,0 19.5485,8.7559 19.5485,19.5529" />
    <path
       inkscape:connector-curvature="0"
       id="path7932"
       style="display:inline;fill:none;fill-opacity:1;fill-rule:nonzero;stroke:#ff0000;stroke-width:5;stroke-miterlimit:4.13043499;stroke-dasharray:none;stroke-opacity:1;filter:url(#filter8569);enable-background:new"
       d="m -3055.5754,-4.447763 c 0,10.7975 -8.7561,19.5533 -19.5534,19.5533 -10.7969,0 -19.5482,-8.7558 -19.5482,-19.5533 0,-10.7969 8.7513,-19.5528 19.5482,-19.5528 10.7973,0 19.5534,8.7559 19.5534,19.5528" />
    <path
       inkscape:connector-curvature="0"
       id="path7934"
       style="display:inline;fill:none;fill-opacity:1;fill-rule:nonzero;stroke:#ff0000;stroke-width:5;stroke-miterlimit:4.13043499;stroke-dasharray:none;stroke-opacity:1;filter:url(#filter8569);enable-background:new"
       d="m -3064.8957,51.077337 c 0,10.7969 -8.7557,19.5528 -19.5532,19.5528 -10.7969,0 -19.5484,-8.7559 -19.5484,-19.5528 0,-10.7974 8.7515,-19.5533 19.5484,-19.5533 10.7975,0 19.5532,8.7559 19.5532,19.5533" />
    <path
       inkscape:connector-curvature="0"
       id="path7936"
       style="display:inline;fill:none;fill-opacity:1;fill-rule:nonzero;stroke:#ff0000;stroke-width:5;stroke-miterlimit:4.13043499;stroke-dasharray:none;stroke-opacity:1;filter:url(#filter8569);enable-background:new"
       d="m -3058.8424,90.178637 c 0,10.801803 -8.756,19.553303 -19.5534,19.553303 -10.7969,0 -19.5486,-8.7515 -19.5486,-19.553303 0,-10.7969 8.7517,-19.5485 19.5486,-19.5485 10.7974,0 19.5534,8.7516 19.5534,19.5485" />
    <path
       inkscape:connector-curvature="0"
       id="path7938"
       style="display:inline;fill:none;fill-opacity:1;fill-rule:nonzero;stroke:#ff0000;stroke-width:5;stroke-miterlimit:4.13043499;stroke-dasharray:none;stroke-opacity:1;filter:url(#filter8569);enable-background:new"
       d="m -2985.7773,71.185437 c 0,10.8017 -8.7516,19.5533 -19.5485,19.5533 -10.8018,0 -19.5534,-8.7516 -19.5534,-19.5533 0,-10.797 8.7516,-19.5486 19.5534,-19.5486 10.7969,0 19.5485,8.7516 19.5485,19.5486" />
    <path
       inkscape:connector-curvature="0"
       id="path7940"
       style="display:inline;fill:none;fill-opacity:1;fill-rule:nonzero;stroke:#ff0000;stroke-width:5;stroke-miterlimit:4.13043499;stroke-dasharray:none;stroke-opacity:1;filter:url(#filter8569);enable-background:new"
       d="m -3029.3732,127.28484 c 0,10.7974 -8.7559,19.5484 -19.5534,19.5484 -10.7969,0 -19.5483,-8.751 -19.5483,-19.5484 0,-10.8019 8.7514,-19.5529 19.5483,-19.5529 10.7975,0 19.5534,8.751 19.5534,19.5529" />
    <path
       inkscape:connector-curvature="0"
       id="path7942"
       style="display:inline;fill:none;fill-opacity:1;fill-rule:nonzero;stroke:#ff0000;stroke-width:5;stroke-miterlimit:4.13043499;stroke-dasharray:none;stroke-opacity:1;filter:url(#filter8569);enable-background:new"
       d="m -3005.1325,156.79134 c 0,10.8017 -8.7514,19.55269 -19.5483,19.55269 -10.802,0 -19.5534,-8.75099 -19.5534,-19.55269 0,-10.7976 8.7514,-19.5486 19.5534,-19.5486 10.7969,0 19.5483,8.751 19.5483,19.5486" />
    <path
       inkscape:connector-curvature="0"
       id="path7944"
       style="display:inline;fill:none;fill-opacity:1;fill-rule:nonzero;stroke:#ff0000;stroke-width:5;stroke-miterlimit:4.13043499;stroke-dasharray:none;stroke-opacity:1;filter:url(#filter8569);enable-background:new"
       d="m -3031.3297,192.43713 c 0,10.7972 -8.7515,19.5533 -19.5532,19.5533 -10.7971,0 -19.5486,-8.7561 -19.5486,-19.5533 0,-10.8019 8.7515,-19.553 19.5486,-19.553 10.8017,0 19.5532,8.7511 19.5532,19.553" />
  </g>
  <g
     inkscape:groupmode="layer"
     id="layer5"
     inkscape:label="top"
     style="display:inline"
     transform="translate(3311.2485,527.54967)">
    <g
       style="display:inline;enable-background:new"
       id="g3801"
       inkscape:label="0"
       transform="translate(-169.04495,508.95891)">
      <path
         id="path3803"
         d="m -708.66142,1031.1024 0,21.2598 -354.33068,0 0,-177.16535 21.2598,0 0,-177.16535 -21.2598,0 0,-177.16536 354.33068,0 0,21.25984 354.33071,0 0,-21.25984 354.33071,0 0,177.16536 -21.259843,0 0,177.16535 21.259843,0 0,177.16535 -354.33071,0 0,-21.2598 -354.33071,0 z"
         style="fill:none;stroke:#000000"
         inkscape:connector-curvature="0" />
    </g>
  </g>
  <g
     inkscape:groupmode="layer"
     id="layer4"
     inkscape:label="bottom"
     style="display:inline"
     transform="translate(3311.2485,527.54967)">
    <g
       style="display:inline;enable-background:new"
       transform="matrix(0,1,-1,0,-2226.7104,767.72863)"
       inkscape:label="0"
       id="g8485">
      <path
         inkscape:connector-curvature="0"
         style="fill:none;stroke:#000000"
         d="m 631.88976,-683.85827 -200.7874,0 0,21.25984 200.7874,0 0,-21.25984 z"
         id="path8487" />
      <path
         inkscape:connector-curvature="0"
         style="fill:none;stroke:#000000"
         d="m 708.66142,542.12598 0,-21.25984 -354.33071,0 0,21.25984 354.33071,0 z"
         id="path8489" />
      <path
         inkscape:connector-curvature="0"
         style="fill:none;stroke:#000000"
         d="m 811.41732,335.43307 21.25984,0 0,185.43307 230.31494,0 0,177.16536 -21.2598,0 0,177.16535 21.2598,0 0,177.16535 -354.33068,0 0,-21.2598 -354.33071,0 0,21.2598 -354.33071,0 0,-177.16535 21.259843,0 0,-177.16535 -21.259843,0 0,-177.16536 230.31496,0 0,-185.43307 21.25984,0 0,-206.69291 -21.25984,0 0,-399.2126 21.25984,0 0,-206.69291 -21.25984,0 0,-242.12599 602.3622,0 0,242.12599 -21.25984,0 0,206.69291 21.25984,0 0,399.2126 -21.25984,0 0,206.69291 z"
         id="path8491" />
    </g>
  </g>
  <g
     inkscape:groupmode="layer"
     id="layer2"
     inkscape:label="lensHolder"
     style="display:inline"
     transform="translate(3311.2485,527.54967)">
    <path
       style="display:inline;fill:none;fill-opacity:1;stroke:#ff0000;stroke-width:10.51872921;stroke-miterlimit:10;stroke-dasharray:none;stroke-opacity:1;filter:url(#filter8569);enable-background:new"
       d="m -764.00416,-80.926181 c -11.3205,0 -20.4349,5.8824 -20.4349,13.1889 0,0.1139 0.011,0.2262 0.012,0.3394 l -33.6978,0 0,21.8366 c -0.1753,0 -0.3494,-0.01 -0.5259,-0.01 -11.3559,0 -20.4985,5.9008 -20.4985,13.23 l 0,134.513201 c 0,7.3293 9.1426,13.23 20.4985,13.23 0.1765,0 0.3506,-0.01 0.5259,-0.01 l 0,21.8366 33.6978,0 c 0,0.1132 -0.012,0.2255 -0.012,0.3394 0,7.3065 9.1143,13.1889 20.4349,13.1889 l 271.9267,0 c 11.3208,0 20.4329,-5.8824 20.4329,-13.1889 0,-0.1139 -0.011,-0.2262 -0.012,-0.3394 l 33.698,0 0,-21.8366 c 0.1753,0 0.3495,0.01 0.5258,0.01 11.356,0 20.4966,-5.9007 20.4966,-13.23 l 0,-134.513201 c 0,-7.3292 -9.1406,-13.23 -20.4966,-13.23 -0.1763,0 -0.3505,0.01 -0.5258,0.01 l 0,-21.8366 -33.698,0 c 0,-0.1132 0.012,-0.2255 0.012,-0.3394 0,-7.3065 -9.1121,-13.1889 -20.4329,-13.1889 l -271.9267,0 z"
       id="rect7197"
       inkscape:connector-curvature="0" />
    <path
       style="display:inline;fill:none;fill-opacity:1;stroke:#ff0000;stroke-width:10;stroke-miterlimit:10;stroke-dasharray:none;stroke-opacity:1;filter:url(#filter8569);enable-background:new"
       d="m -628.04276,-269.66458 -17.0742,17.0742 a 62.377243,62.377243 0 0 0 -42.8512,42.8525 l -16.2475,16.2461 15.6365,15.6365 a 62.377243,62.377243 0 0 0 45.767,45.767 l 14.7694,14.7694 14.7612,-14.7603 a 62.377243,62.377243 0 0 0 45.7652,-45.7661 l 15.6464,-15.6464 -16.1971,-16.1971 a 62.377243,62.377243 0 0 0 -42.8518,-42.8519 l -17.1239,-17.1239 z"
       id="path7278"
       inkscape:connector-curvature="0" />
    <path
       id="path7158"
       d="m -527.64916,173.10622 a 12.401575,12.401575 0 0 1 -12.4016,12.4016 l -175.9843,0 a 12.401575,12.401575 0 0 1 -12.4015,-12.4016 l 0,-8.8582 -200.7874,0 0,-105.118101 21.2598,0 0,-76.7717 -21.2598,0 0,-76.7716 147.6378,0 a 53.149606,53.149606 0 0 0 53.1496,-53.149599 l 0,-95.6693 a 53.149606,53.149606 0 0 1 53.1496,-53.1496 l 94.4882,0 a 53.149606,53.149606 0 0 1 53.1496,53.1496 l 0,95.6693 a 53.149606,53.149606 0 0 0 53.1496,53.149599 l 147.6378,0 0,76.7716 -21.2599,0 0,76.7717 21.2599,0 0,105.118101 -200.7874,0 0,8.8582 z"
       style="fill:none;stroke:#000000;enable-background:new"
       inkscape:connector-curvature="0" />
    <path
       id="path7160"
       d="m -489.85376,-58.980381 -276.3779,0 0,187.795301 276.3779,0 0,-187.795301 z"
       style="fill:none;stroke:#000000;enable-background:new"
       inkscape:connector-curvature="0" />
  </g>
  <g
     inkscape:groupmode="layer"
     id="layer3"
     inkscape:label="front"
     style="display:inline"
     transform="translate(3311.2485,527.54967)">
    <path
       inkscape:connector-curvature="0"
       id="path8441"
       d="m -1484.7834,-224.33243 -588.1889,0 0,361.41738 588.1889,0 0,-361.41738 z"
       style="fill:none;stroke:#000000;enable-background:new" />
    <path
       id="path8443"
       d="m -2080.0589,630.78565 21.2598,0 0,-76.772 -21.2598,0 0,76.772 z"
       style="fill:none;stroke:#000000;enable-background:new"
       inkscape:connector-curvature="0" />
    <path
       id="path8445"
       d="m -1498.9566,630.78565 21.2599,0 0,-76.772 -21.2599,0 0,76.772 z"
       style="fill:none;stroke:#000000;enable-background:new"
       inkscape:connector-curvature="0" />
    <path
       id="path8447"
       d="m -1943.6416,757.16365 a 12.401575,12.401575 0 0 1 -12.4016,-12.402 l 0,-8.858 -333.0709,0 0,-392.126 -21.2598,0 0,-413.385597 21.2598,0 0,-392.125983 333.0709,0 0,-21.2599 354.3307,0 0,21.2599 333.071,0 0,392.125983 21.2598,0 0,413.385597 -21.2598,0 0,392.126 -333.071,0 0,8.858 a 12.401575,12.401575 0 0 1 -12.4016,12.402 l -329.5275,0 z"
       style="fill:none;stroke:#000000;enable-background:new"
       inkscape:connector-curvature="0" />
    <path
       inkscape:connector-curvature="0"
       id="path8431-7"
       d="m -2008.2326,-279.67153 c -19.0967,0 -34.4717,11.9865 -34.4717,26.8747 0,0.2321 0.019,0.4609 0.021,0.6916 l -56.8451,0 0,44.496 c -0.2958,0 -0.5894,-0.02 -0.8872,-0.02 -19.1564,0 -34.5791,12.024 -34.5791,26.9586 l 0,274.094683 c 0,14.934697 15.4227,26.958397 34.5791,26.958397 0.2978,0 0.5914,-0.02 0.8872,-0.02 l 0,44.4956 56.8451,0 c 0,0.231 -0.021,0.46 -0.021,0.692 0,14.888 15.3749,26.874 34.4717,26.874 l 458.7158,0 c 19.0972,0 34.4685,-11.986 34.4685,-26.874 0,-0.232 -0.019,-0.461 -0.021,-0.692 l 56.8454,0 0,-44.4956 c 0.2957,0 0.5897,0.02 0.8871,0.02 19.1565,0 34.5758,-12.0237 34.5758,-26.958397 l 0,-274.094683 c 0,-14.9346 -15.4193,-26.9586 -34.5758,-26.9586 -0.2974,0 -0.5914,0.02 -0.8871,0.02 l 0,-44.496 -56.8454,0 c 0,-0.2307 0.021,-0.4595 0.021,-0.6916 0,-14.8882 -15.3713,-26.8747 -34.4685,-26.8747 l -458.7158,0 z"
       style="display:inline;fill:none;fill-opacity:1;stroke:#ff0000;stroke-width:19.50190353;stroke-miterlimit:10;stroke-dasharray:none;stroke-opacity:1;enable-background:new" />
    <path
       inkscape:connector-curvature="0"
       id="path8431-7-1"
       d="m 928.72865,625.88251 c 0,-27.655 -21.6895,-49.9201 -48.6301,-49.9201 -0.4199,0 -0.8338,0.027 -1.2515,0.031 l 0,-82.32055 -80.5155,0 c 0,-0.4283 0.037,-0.8536 0.037,-1.2848 0,-27.7413 -21.7576,-50.0758 -48.7818,-50.0758 l -495.9751,0 c -27.0244,0 -48.7816,22.3345 -48.7816,50.0758 0,0.4312 0.037,0.8565 0.037,1.2848 l -80.5147,0 0,82.32055 c -0.4181,0 -0.8326,-0.031 -1.2523,-0.031 -26.940104,0 -48.628604,22.265 -48.628604,49.9201 l 0,664.29159 c 0,27.6557 21.6885,49.9156 48.628604,49.9156 0.4197,0 0.8342,-0.027 1.2523,-0.031 l 0,82.3208 80.5147,0 c 0,0.4282 -0.037,0.8539 -0.037,1.2846 0,27.7416 21.7572,50.0711 48.7816,50.0711 l 495.9751,0 c 27.0242,0 48.7818,-22.3295 48.7818,-50.0711 0,-0.4307 -0.037,-0.8564 -0.037,-1.2846 l 80.5155,0 0,-82.3208 c 0.4177,0 0.8316,0.031 1.2515,0.031 26.9406,0 48.6301,-22.2599 48.6301,-49.9156 l 0,-664.29159 z"
       style="display:inline;fill:none;fill-opacity:1;stroke:#ff0000;stroke-width:31.56924438;stroke-miterlimit:10;stroke-dasharray:none;stroke-opacity:1;enable-background:new" />
    <text
       xml:space="preserve"
       style="font-style:normal;font-weight:normal;font-size:60px;line-height:125%;font-family:sans-serif;letter-spacing:0px;word-spacing:0px;fill:#000000;fill-opacity:1;stroke:none;stroke-width:1px;stroke-linecap:butt;stroke-linejoin:miter;stroke-opacity:1"
       x="498.11761"
       y="590.39874"
       id="text4016"
       sodipodi:linespacing="125%"><tspan
         sodipodi:role="line"
         x="498.11761"
         y="590.39874"
         id="tspan4020"
         style="font-style:normal;font-variant:normal;font-weight:normal;font-stretch:normal;font-size:125px;font-family:'Mariette Tryout';-inkscape-font-specification:'Mariette Tryout';text-align:center;text-anchor:middle">Thank you</tspan><tspan
         sodipodi:role="line"
         x="498.11761"
         y="746.64874"
         style="font-style:normal;font-variant:normal;font-weight:normal;font-stretch:normal;font-size:125px;font-family:'Mariette Tryout';-inkscape-font-specification:'Mariette Tryout';text-align:center;text-anchor:middle"
         id="tspan4028">for supporting</tspan><tspan
         sodipodi:role="line"
         x="498.11761"
         y="902.89874"
         style="font-style:normal;font-variant:normal;font-weight:normal;font-stretch:normal;font-size:125px;font-family:'Mariette Tryout';-inkscape-font-specification:'Mariette Tryout';text-align:center;text-anchor:middle"
         id="tspan4041">the</tspan><tspan
         sodipodi:role="line"
         x="498.11761"
         y="1059.1487"
         style="font-style:normal;font-variant:normal;font-weight:normal;font-stretch:normal;font-size:125px;font-family:'Mariette Tryout';-inkscape-font-specification:'Mariette Tryout';text-align:center;text-anchor:middle"
         id="tspan4043">Johnson</tspan><tspan
         sodipodi:role="line"
         x="498.11761"
         y="1215.3987"
         style="font-style:normal;font-variant:normal;font-weight:normal;font-stretch:normal;font-size:125px;font-family:'Mariette Tryout';-inkscape-font-specification:'Mariette Tryout';text-align:center;text-anchor:middle"
         id="tspan4045">County</tspan><tspan
         sodipodi:role="line"
         x="498.11761"
         y="1371.6487"
         style="font-style:normal;font-variant:normal;font-weight:normal;font-stretch:normal;font-size:125px;font-family:'Mariette Tryout';-inkscape-font-specification:'Mariette Tryout';text-align:center;text-anchor:middle"
         id="tspan4047">Library</tspan></text>
  </g>
</svg>
