<?xml version="1.0" encoding="UTF-8" standalone="no"?>
<!-- Created with Inkscape (http://www.inkscape.org/) -->

<svg
   xmlns:dc="http://purl.org/dc/elements/1.1/"
   xmlns:cc="http://creativecommons.org/ns#"
   xmlns:rdf="http://www.w3.org/1999/02/22-rdf-syntax-ns#"
   xmlns:svg="http://www.w3.org/2000/svg"
   xmlns="http://www.w3.org/2000/svg"
   xmlns:sodipodi="http://sodipodi.sourceforge.net/DTD/sodipodi-0.dtd"
   xmlns:inkscape="http://www.inkscape.org/namespaces/inkscape"
   width="1310.1143mm"
   height="557.44116mm"
   viewBox="0 0 4642.1371 1975.1852"
   id="svg2"
   version="1.1"
   inkscape:version="0.91 r13725"
   sodipodi:docname="ThermalPrinterCameraFrame_6mm.svg">
  <defs
     id="defs4" />
  <sodipodi:namedview
     id="base"
     pagecolor="#ffffff"
     bordercolor="#666666"
     borderopacity="1.0"
     inkscape:pageopacity="0.0"
     inkscape:pageshadow="2"
     inkscape:zoom="0.175"
     inkscape:cx="2327.4011"
     inkscape:cy="1576.1118"
     inkscape:document-units="px"
     inkscape:current-layer="layer1"
     showgrid="false"
     inkscape:snap-intersection-paths="true"
     inkscape:object-nodes="true"
     inkscape:snap-smooth-nodes="true"
     fit-margin-top="0"
     fit-margin-left="0"
     fit-margin-right="0"
     fit-margin-bottom="0"
     inkscape:window-width="1920"
     inkscape:window-height="1017"
     inkscape:window-x="-8"
     inkscape:window-y="-8"
     inkscape:window-maximized="1" />
  <metadata
     id="metadata7">
    <rdf:RDF>
      <cc:Work
         rdf:about="">
        <dc:format>image/svg+xml</dc:format>
        <dc:type
           rdf:resource="http://purl.org/dc/dcmitype/StillImage" />
        <dc:title></dc:title>
      </cc:Work>
    </rdf:RDF>
  </metadata>
  <g
     inkscape:label="Layer 1"
     inkscape:groupmode="layer"
     id="layer1"
     transform="translate(2622.9055,657.48611)">
    <g
       id="g3742"
       transform="translate(-605.71432,74.285715)">
      <g
         id="g3634">
        <g
           id="g3582"
           inkscape:label="0"
           transform="translate(-2016.6912,-11.980485)">
          <path
             id="path3584"
             d="m 631.88976,-683.85827 -200.7874,0 0,21.25984 200.7874,0 0,-21.25984 z"
             style="fill:none;stroke:#000000"
             inkscape:connector-curvature="0" />
          <path
             id="path3586"
             d="m 708.66142,542.12598 0,-21.25984 -354.33071,0 0,21.25984 354.33071,0 z"
             style="fill:none;stroke:#000000"
             inkscape:connector-curvature="0" />
          <path
             id="path3588"
             d="m 811.41732,335.43307 21.25984,0 0,185.43307 230.31494,0 0,177.16536 -21.2598,0 0,177.16535 21.2598,0 0,177.16535 -354.33068,0 0,-21.2598 -354.33071,0 0,21.2598 -354.33071,0 0,-177.16535 21.259843,0 0,-177.16535 -21.259843,0 0,-177.16536 230.31496,0 0,-185.43307 21.25984,0 0,-206.69291 -21.25984,0 0,-399.2126 21.25984,0 0,-206.69291 -21.25984,0 0,-242.12599 602.3622,0 0,242.12599 -21.25984,0 0,206.69291 21.25984,0 0,399.2126 -21.25984,0 0,206.69291 z"
             style="fill:none;stroke:#000000"
             inkscape:connector-curvature="0" />
        </g>
        <text
           xml:space="preserve"
           style="font-style:normal;font-weight:normal;font-size:40px;line-height:125%;font-family:sans-serif;letter-spacing:0px;word-spacing:0px;fill:#000000;fill-opacity:1;stroke:none;stroke-width:1px;stroke-linecap:butt;stroke-linejoin:miter;stroke-opacity:1"
           x="-1549.8925"
           y="168.17798"
           id="text3606"
           sodipodi:linespacing="125%"><tspan
             sodipodi:role="line"
             id="tspan3608"
             x="-1549.8925"
             y="168.17798"
             style="font-style:normal;font-variant:normal;font-weight:normal;font-stretch:normal;font-family:'Comic Neue Angular';-inkscape-font-specification:'Comic Neue Angular'">Bottom</tspan></text>
      </g>
    </g>
    <g
       id="g3736"
       transform="translate(-184.99928,180.44731)">
      <g
         transform="translate(-1067.5259,-649.63814)"
         inkscape:label="0"
         id="g3438">
        <path
           inkscape:connector-curvature="0"
           style="fill:none;stroke:#000000"
           d="m 0,638.97638 21.259843,0 0,-413.38583 -21.259843,0 0,-392.12598 177.16535,0 0,-21.25985 177.16536,0 0,21.25985 177.16535,0 0,392.12598 -21.25984,0 0,413.38583 21.25984,0 0,392.12602 -177.16535,0 0,21.2598 -177.16536,0 0,-21.2598 -177.16535,0 0,-392.12602 z"
           id="path3440" />
      </g>
      <text
         sodipodi:linespacing="125%"
         id="text3606-6"
         y="-203.43866"
         x="-848.11572"
         style="font-style:normal;font-weight:normal;font-size:40px;line-height:125%;font-family:sans-serif;letter-spacing:0px;word-spacing:0px;fill:#000000;fill-opacity:1;stroke:none;stroke-width:1px;stroke-linecap:butt;stroke-linejoin:miter;stroke-opacity:1"
         xml:space="preserve"><tspan
           id="tspan3654"
           style="font-style:normal;font-variant:normal;font-weight:normal;font-stretch:normal;font-family:'Comic Neue Angular';-inkscape-font-specification:'Comic Neue Angular'"
           y="-203.43866"
           x="-848.11572"
           sodipodi:role="line">Sides</tspan></text>
    </g>
    <g
       id="g3730"
       transform="translate(-68.219759,328.74074)">
      <g
         transform="translate(717.07102,-797.93157)"
         inkscape:label="0"
         id="g3546">
        <path
           inkscape:connector-curvature="0"
           style="fill:none;stroke:#000000"
           d="m -1041.7323,225.59055 0,-392.12598 333.07088,0 0,-21.25985 354.33071,0 0,21.25985 333.070867,0 0,392.12598 21.259843,0 0,413.38583 -21.259843,0 0,392.12602 -333.070867,0 0,21.2598 -354.33071,0 0,-21.2598 -333.07088,0 0,-392.12602 -21.2598,0 0,-413.38583 21.2598,0 z"
           id="path3548" />
      </g>
      <text
         sodipodi:linespacing="125%"
         id="text3606-0"
         y="-351.81021"
         x="142.77223"
         style="font-style:normal;font-weight:normal;font-size:40px;line-height:125%;font-family:sans-serif;letter-spacing:0px;word-spacing:0px;fill:#000000;fill-opacity:1;stroke:none;stroke-width:1px;stroke-linecap:butt;stroke-linejoin:miter;stroke-opacity:1"
         xml:space="preserve"><tspan
           style="font-style:normal;font-variant:normal;font-weight:normal;font-stretch:normal;font-family:'Comic Neue Angular';-inkscape-font-specification:'Comic Neue Angular'"
           y="-351.81021"
           x="142.77223"
           id="tspan3608-3"
           sodipodi:role="line">Back</tspan></text>
    </g>
    <g
       id="g3724"
       transform="translate(1320,431.61736)">
      <g
         transform="translate(698.73164,-166.78047)"
         inkscape:label="0"
         id="g3474">
        <path
           inkscape:connector-curvature="0"
           style="fill:none;stroke:#000000"
           d="m -708.66142,1031.1024 0,21.2598 -354.33068,0 0,-177.16535 21.2598,0 0,-177.16535 -21.2598,0 0,-177.16536 354.33068,0 0,21.25984 354.33071,0 0,-21.25984 354.33071,0 0,177.16536 -21.259843,0 0,177.16535 21.259843,0 0,177.16535 -354.33071,0 0,-21.2598 -354.33071,0 z"
           id="path3476" />
      </g>
      <text
         sodipodi:linespacing="125%"
         id="text3606-1"
         y="629.5993"
         x="137.33324"
         style="font-style:normal;font-weight:normal;font-size:40px;line-height:125%;font-family:sans-serif;letter-spacing:0px;word-spacing:0px;fill:#000000;fill-opacity:1;stroke:none;stroke-width:1px;stroke-linecap:butt;stroke-linejoin:miter;stroke-opacity:1"
         xml:space="preserve"><tspan
           style="font-style:normal;font-variant:normal;font-weight:normal;font-stretch:normal;font-family:'Comic Neue Angular';-inkscape-font-specification:'Comic Neue Angular'"
           y="629.5993"
           x="137.33324"
           id="tspan3608-8"
           sodipodi:role="line">Top</tspan></text>
    </g>
    <g
       id="g3712"
       transform="translate(-1931.4286,-78.127121)">
      <g
         transform="translate(3217.5141,91.389201)"
         inkscape:label="0"
         id="g3510">
        <path
           inkscape:connector-curvature="0"
           style="fill:none;stroke:#000000"
           d="m -510.23622,917.12598 a 8.858268,8.858268 0 0 1 -8.85827,8.85827 l -12.40157,0 0,105.11815 -185.43307,0 0,21.2598 -206.69292,0 0,-21.2598 -399.21255,0 0,21.2598 -206.693,0 0,-21.2598 -185.433,0 0,-105.11815 -21.2599,0 0,-76.77165 21.2599,0 0,-76.77165 1183.46454,0 0,76.77165 12.40157,0 a 8.858268,8.858268 0 0 1 8.85827,8.85827 l 0,59.05511 z"
           id="path3512" />
      </g>
      <text
         sodipodi:linespacing="125%"
         id="text3606-5"
         y="1175.6495"
         x="1938.983"
         style="font-style:normal;font-weight:normal;font-size:40px;line-height:125%;font-family:sans-serif;letter-spacing:0px;word-spacing:0px;fill:#000000;fill-opacity:1;stroke:none;stroke-width:1px;stroke-linecap:butt;stroke-linejoin:miter;stroke-opacity:1"
         xml:space="preserve"><tspan
           id="tspan3674"
           style="font-style:normal;font-variant:normal;font-weight:normal;font-stretch:normal;font-family:'Comic Neue Angular';-inkscape-font-specification:'Comic Neue Angular'"
           y="1175.6495"
           x="1938.983"
           sodipodi:role="line">Lens holder wings</tspan></text>
    </g>
    <g
       id="g3718"
       transform="translate(-2198.2057,-371.42857)">
      <path
         id="path3401"
         d="m 1311.8223,1626.6198 a 12.401575,12.401575 0 0 1 -12.4016,12.4016 l -175.9843,0 a 12.401575,12.401575 0 0 1 -12.4015,-12.4016 l 0,-8.8582 -200.78744,0 0,-105.1182 21.25984,0 0,-76.7716 -21.25984,0 0,-76.7717 147.63784,0 a 53.149606,53.149606 0 0 0 53.1496,-53.1496 l 0,-95.6693 a 53.149606,53.149606 0 0 1 53.1496,-53.1496 l 94.4882,0 a 53.149606,53.149606 0 0 1 53.1496,53.1496 l 0,95.6693 a 53.149606,53.149606 0 0 0 53.1496,53.1496 l 147.6378,0 0,76.7717 -21.2599,0 0,76.7716 21.2599,0 0,105.1182 -200.7874,0 0,8.8582 z"
         style="fill:none;stroke:#000000"
         inkscape:connector-curvature="0" />
      <path
         id="path3403"
         d="m 1349.6175,1408.7064 -276.3779,0 0,187.7953 276.3779,0 0,-187.7953 z"
         style="fill:none;stroke:#000000"
         inkscape:connector-curvature="0" />
      <text
         sodipodi:linespacing="125%"
         id="text3606-11"
         y="1516.5396"
         x="1109.7391"
         style="font-style:normal;font-weight:normal;font-size:40px;line-height:125%;font-family:sans-serif;letter-spacing:0px;word-spacing:0px;fill:#000000;fill-opacity:1;stroke:none;stroke-width:1px;stroke-linecap:butt;stroke-linejoin:miter;stroke-opacity:1"
         xml:space="preserve"><tspan
           id="tspan3686"
           style="font-style:normal;font-variant:normal;font-weight:normal;font-stretch:normal;font-family:'Comic Neue Angular';-inkscape-font-specification:'Comic Neue Angular'"
           y="1516.5396"
           x="1109.7391"
           sodipodi:role="line">Lens holder</tspan></text>
    </g>
    <g
       id="g4603">
      <path
         id="path3356"
         d="m 1781.3301,-398.32469 -588.189,0 0,361.41732 588.189,0 0,-361.41732 z"
         style="fill:none;stroke:#000000"
         inkscape:connector-curvature="0" />
      <path
         id="path3358"
         d="m 1186.0545,456.79342 21.2598,0 0,-76.77165 -21.2598,0 0,76.77165 z"
         style="fill:none;stroke:#000000"
         inkscape:connector-curvature="0" />
      <path
         id="path3360"
         d="m 1767.1568,456.79342 21.2599,0 0,-76.77165 -21.2599,0 0,76.77165 z"
         style="fill:none;stroke:#000000"
         inkscape:connector-curvature="0" />
      <path
         id="path3362"
         d="m 1322.4718,583.17137 a 12.401575,12.401575 0 0 1 -12.4016,-12.4016 l 0,-8.8582 -333.07087,0 0,-392.12602 -21.2598,0 0,-413.38583 21.2598,0 0,-392.12598 333.07087,0 0,-21.25985 354.3307,0 0,21.25985 333.0709,0 0,392.12598 21.2598,0 0,413.38583 -21.2598,0 0,392.12602 -333.0709,0 0,8.8582 a 12.401575,12.401575 0 0 1 -12.4016,12.4016 l -329.5275,0 z"
         style="fill:none;stroke:#000000"
         inkscape:connector-curvature="0" />
      <text
         sodipodi:linespacing="125%"
         id="text3606-9"
         y="-203.99298"
         x="1439.2083"
         style="font-style:normal;font-weight:normal;font-size:40px;line-height:125%;font-family:sans-serif;letter-spacing:0px;word-spacing:0px;fill:#000000;fill-opacity:1;stroke:none;stroke-width:1px;stroke-linecap:butt;stroke-linejoin:miter;stroke-opacity:1"
         xml:space="preserve"><tspan
           style="font-style:normal;font-variant:normal;font-weight:normal;font-stretch:normal;font-family:'Comic Neue Angular';-inkscape-font-specification:'Comic Neue Angular'"
           y="-203.99298"
           x="1439.2083"
           id="tspan3608-5"
           sodipodi:role="line">Front</tspan></text>
      <path
         sodipodi:open="true"
         style="fill:none;stroke:#000000;stroke-width:0.46010366;stroke-opacity:1"
         transform="scale(-1,-1)"
         d="m -1664.401,-561.91156 a 27.886494,27.886494 0 0 1 -13.9432,24.15041 27.886494,27.886494 0 0 1 -27.8865,0 27.886494,27.886494 0 0 1 -13.9433,-24.15041"
         sodipodi:end="3.1415927"
         sodipodi:start="0"
         sodipodi:ry="27.886494"
         sodipodi:rx="27.886494"
         sodipodi:cy="-561.91156"
         sodipodi:cx="-1692.2875"
         sodipodi:type="arc"
         id="path3753" />
    </g>
  </g>
</svg>
